<svg width="855" height="118" viewBox="0 0 855 118" xmlns="http://www.w3.org/2000/svg"><g fill="#fff" stroke="#000"><path d="M76.222 27.77h1.365V20h4.515c3.255 0 5.25-2.021 5.25-4.804 0-2.73-1.995-4.751-5.25-4.751h-5.88zm1.365-9.004V11.68h4.463c2.494 0 3.885 1.444 3.885 3.544s-1.391 3.543-3.885 3.543zM89.374 21.418c-.079 3.596 2.966 6.693 6.536 6.615 3.596.078 6.667-3.02 6.589-6.616 0-3.648-2.94-6.588-6.563-6.588-3.596-.079-6.641 2.94-6.562 6.588zm11.76.026c0 2.992-2.31 5.355-5.224 5.355s-5.171-2.363-5.171-5.355c0-3.045 2.257-5.381 5.197-5.381 2.888 0 5.198 2.336 5.198 5.38zM116.857 8.082v9.477c-.97-1.68-2.94-2.73-5.118-2.73-3.623 0-6.3 2.913-6.3 6.615 0 3.648 2.756 6.588 6.3 6.588 2.205 0 4.226-1.076 5.171-2.835v2.573h1.26V8.082zm0 13.362c0 3.622-2.362 5.355-4.987 5.355-2.914 0-5.066-2.363-5.066-5.381 0-3.045 2.152-5.355 5.066-5.355 2.625 0 4.987 1.732 4.987 5.38zM134.051 21.733c.079-.29.105-.71.105-1.26 0-3.387-2.546-5.644-5.67-5.644-3.491-.079-6.484 3.018-6.405 6.615-.079 3.596 2.966 6.667 6.563 6.588 2.021 0 3.832-.892 5.092-2.362l-.84-.866c-1.129 1.338-2.546 1.995-4.226 1.995-2.861 0-5.066-2.1-5.224-5.067zM123.5 20.55c.183-1.312.735-2.388 1.653-3.228.92-.867 1.995-1.287 3.282-1.287 2.441 0 4.462 1.759 4.357 4.515zM156.127 19.764c0-2.966-1.68-4.935-4.515-4.935-2.02 0-3.543.997-4.383 2.467-.657-1.548-2.022-2.467-3.99-2.467-1.68 0-3.072.682-3.912 1.916v-1.654h-1.26V27.77h1.313v-7.901c0-2.205 1.496-3.806 3.675-3.806 2.1 0 3.386 1.522 3.386 3.806v7.901h1.313v-8.111c0-1.969 1.548-3.596 3.675-3.596 2.1 0 3.36 1.522 3.36 3.806v7.901h1.338v-8.006zM159.829 21.418c-.079 3.596 2.966 6.693 6.536 6.615 3.596.078 6.667-3.02 6.589-6.616 0-3.648-2.94-6.588-6.563-6.588-3.596-.079-6.641 2.94-6.562 6.588zm11.76.026c0 2.992-2.31 5.355-5.224 5.355s-5.171-2.363-5.171-5.355c0-3.045 2.257-5.381 5.197-5.381 2.888 0 5.198 2.336 5.198 5.38zM175.631 25.407c1.076 1.575 2.756 2.625 4.856 2.625 1.182 0 2.18-.315 2.993-.918.814-.604 1.234-1.47 1.234-2.599 0-1.759-1.155-2.704-3.282-3.649l-1.18-.525c-1.707-.735-2.39-1.207-2.39-2.283 0-1.287 1.103-1.995 2.573-1.995 1.234 0 2.336.55 3.307 1.627l.867-.84c-.945-1.234-2.337-2.021-4.095-2.021-1.129 0-2.074.289-2.862.892-.787.604-1.18 1.392-1.18 2.415 0 1.654 1.128 2.52 3.123 3.387l1.155.498c1.785.814 2.467 1.155 2.599 2.547 0 1.443-1.234 2.23-2.835 2.23-1.602 0-2.809-.787-3.964-2.257l-.919.867zM203.325 22.966c0 3.071 2.179 5.066 4.987 5.066 2.783 0 4.962-1.995 4.962-5.066v-7.875h-1.313v7.928c0 2.31-1.575 3.78-3.649 3.78-2.1 0-3.675-1.47-3.675-3.78V15.09h-1.312v7.875zM216.739 25.407c1.076 1.575 2.756 2.625 4.856 2.625 1.181 0 2.179-.315 2.992-.918.814-.604 1.234-1.47 1.234-2.599 0-1.759-1.155-2.704-3.281-3.649l-1.181-.525c-1.707-.735-2.389-1.207-2.389-2.283 0-1.287 1.102-1.995 2.572-1.995 1.234 0 2.337.55 3.308 1.627l.866-.84c-.945-1.234-2.336-2.021-4.095-2.021-1.129 0-2.074.289-2.861.892-.788.604-1.181 1.392-1.181 2.415 0 1.654 1.128 2.52 3.123 3.387l1.155.498c1.785.814 2.468 1.155 2.6 2.547 0 1.443-1.235 2.23-2.836 2.23-1.601 0-2.809-.787-3.964-2.257l-.918.867zM238.92 19.816c0-3.228-1.89-4.987-4.751-4.987-2.022 0-3.623.866-4.857 2.625l.92.735c1.075-1.392 2.257-2.127 3.858-2.127 2.126 0 3.491 1.287 3.491 3.702v1.444h-4.41c-2.651 0-4.41 1.312-4.41 3.386 0 1.076.42 1.942 1.26 2.546.84.604 1.864.893 3.098.893 1.995 0 3.622-.814 4.541-2.258v1.995h1.26zm-1.339 3.229c0 2.179-1.995 3.833-4.331 3.833-1.706 0-3.124-.814-3.124-2.363 0-1.391 1.103-2.179 3.176-2.179h4.28zM249.866 15.091c-.131 0-.472-.078-.814-.078-1.758 0-3.28.76-4.2 2.23v-2.152h-1.26V27.77h1.313v-7.455c0-2.546 2.126-4.069 4.305-4.069h.656v-1.155zM259.159 21.418c-.079 3.596 2.966 6.693 6.536 6.615 3.596.078 6.667-3.02 6.589-6.616 0-3.648-2.94-6.588-6.563-6.588-3.596-.079-6.641 2.94-6.562 6.588zm11.76.026c0 2.992-2.31 5.355-5.224 5.355s-5.171-2.363-5.171-5.355c0-3.045 2.257-5.381 5.197-5.381 2.888 0 5.198 2.336 5.198 5.38zM274.961 25.407c1.076 1.575 2.756 2.625 4.856 2.625 1.182 0 2.18-.315 2.993-.918.814-.604 1.234-1.47 1.234-2.599 0-1.759-1.155-2.704-3.282-3.649l-1.18-.525c-1.707-.735-2.39-1.207-2.39-2.283 0-1.287 1.103-1.995 2.573-1.995 1.234 0 2.336.55 3.307 1.627l.867-.84c-.945-1.234-2.337-2.021-4.095-2.021-1.129 0-2.074.289-2.862.892-.787.604-1.18 1.392-1.18 2.415 0 1.654 1.128 2.52 3.123 3.387l1.155.498c1.785.814 2.467 1.155 2.599 2.547 0 1.443-1.234 2.23-2.835 2.23-1.602 0-2.809-.787-3.964-2.257l-.919.867zM302.97 27.77h1.365V10.445h-1.365zM319.14 19.764c0-2.94-1.732-4.935-4.646-4.935-1.759 0-3.177.709-4.043 1.969V15.09h-1.26V27.77h1.313v-7.927c0-1.077.341-1.995 1.05-2.704.709-.709 1.627-1.076 2.73-1.076 2.179 0 3.544 1.548 3.544 3.78v7.927h1.312v-8.006zM330.191 26.615c-.656.131-1.26.21-1.759.21-1.706 0-2.756-.735-2.756-2.651v-7.875h4.095V15.09h-4.095v-3.596h-1.339v3.596h-2.205V16.3h2.205v7.927c0 2.625 1.497 3.806 3.885 3.806.657 0 1.313-.078 1.97-.262v-1.155zM344.104 21.733c.079-.29.105-.71.105-1.26 0-3.387-2.546-5.644-5.67-5.644-3.491-.079-6.484 3.018-6.405 6.615-.079 3.596 2.966 6.667 6.562 6.588 2.021 0 3.833-.892 5.093-2.362l-.84-.866c-1.129 1.338-2.546 1.995-4.226 1.995-2.862 0-5.067-2.1-5.224-5.067zM333.55 20.55c.184-1.312.735-2.388 1.654-3.228.919-.867 1.995-1.287 3.281-1.287 2.441 0 4.463 1.759 4.358 4.515zM354.394 15.091c-.132 0-.473-.078-.814-.078-1.759 0-3.281.76-4.2 2.23v-2.152h-1.26V27.77h1.312v-7.455c0-2.546 2.127-4.069 4.305-4.069h.657v-1.155zM366.049 19.816c0-3.228-1.89-4.987-4.751-4.987-2.022 0-3.623.866-4.857 2.625l.919.735c1.076-1.392 2.257-2.127 3.859-2.127 2.126 0 3.491 1.287 3.491 3.702v1.444h-4.41c-2.651 0-4.41 1.312-4.41 3.386 0 1.076.42 1.942 1.26 2.546.84.604 1.864.893 3.097.893 1.995 0 3.623-.814 4.542-2.258v1.995h1.26zm-1.339 3.229c0 2.179-1.995 3.833-4.331 3.833-1.707 0-3.124-.814-3.124-2.363 0-1.391 1.103-2.179 3.176-2.179h4.279zM369.75 21.418c-.079 3.596 2.966 6.693 6.536 6.615a6.316 6.316 0 005.145-2.6l-.945-.76c-1.102 1.417-2.494 2.126-4.2 2.126-2.914 0-5.171-2.363-5.171-5.382 0-2.966 2.257-5.355 5.197-5.355 1.707 0 3.098.71 4.174 2.127l.945-.762c-1.181-1.6-2.992-2.598-5.119-2.598-3.596-.079-6.64 2.992-6.562 6.588zM391.564 26.615c-.657.131-1.26.21-1.759.21-1.706 0-2.756-.735-2.756-2.651v-7.875h4.095V15.09h-4.095v-3.596h-1.339v3.596h-2.205V16.3h2.205v7.927c0 2.625 1.496 3.806 3.885 3.806.656 0 1.312-.078 1.969-.262v-1.155zM394.74 27.77h1.313V15.091h-1.313zm-.499-17.561c0 .63.499 1.155 1.155 1.155.63 0 1.155-.525 1.155-1.155s-.525-1.155-1.155-1.155c-.656 0-1.155.525-1.155 1.155zM410.07 15.091l-4.646 10.684-4.673-10.684h-1.417l5.827 12.941h.551l5.775-12.94zM425.242 21.733c.08-.29.105-.71.105-1.26 0-3.387-2.546-5.644-5.67-5.644-3.49-.079-6.483 3.018-6.405 6.615-.078 3.596 2.967 6.667 6.563 6.588 2.021 0 3.833-.892 5.093-2.362l-.84-.866c-1.13 1.338-2.547 1.995-4.227 1.995-2.861 0-5.066-2.1-5.224-5.067zM414.69 20.55c.184-1.312.735-2.388 1.654-3.228.918-.867 1.995-1.287 3.281-1.287 2.441 0 4.462 1.759 4.357 4.515zM447.817 27.77h1.444l-7.402-17.587h-.551l-7.43 17.587h1.418l1.707-4.121h9.108zm-6.247-15.146l4.016 9.791h-8.059zM462.832 8.082v9.477c-.97-1.68-2.94-2.73-5.118-2.73-3.623 0-6.3 2.913-6.3 6.615 0 3.648 2.756 6.588 6.3 6.588 2.205 0 4.226-1.076 5.171-2.835v2.573h1.26V8.082zm0 13.362c0 3.622-2.362 5.355-4.987 5.355-2.914 0-5.066-2.363-5.066-5.381 0-3.045 2.152-5.355 5.066-5.355 2.625 0 4.987 1.732 4.987 5.38zM467.794 25.407c1.076 1.575 2.756 2.625 4.856 2.625 1.181 0 2.179-.315 2.992-.918.814-.604 1.234-1.47 1.234-2.599 0-1.759-1.155-2.704-3.281-3.649l-1.181-.525c-1.707-.735-2.389-1.207-2.389-2.283 0-1.287 1.102-1.995 2.572-1.995 1.234 0 2.337.55 3.308 1.627l.866-.84c-.945-1.234-2.336-2.021-4.095-2.021-1.129 0-2.074.289-2.861.892-.788.604-1.181 1.392-1.181 2.415 0 1.654 1.128 2.52 3.123 3.387l1.155.498c1.785.814 2.468 1.155 2.6 2.547 0 1.443-1.235 2.23-2.836 2.23-1.601 0-2.809-.787-3.964-2.257l-.918.867zM487.35 21.418c-.079 3.596 2.966 6.693 6.536 6.615a6.316 6.316 0 005.145-2.6l-.945-.76c-1.102 1.417-2.494 2.126-4.2 2.126-2.914 0-5.171-2.363-5.171-5.382 0-2.966 2.258-5.355 5.198-5.355 1.706 0 3.097.71 4.173 2.127l.945-.762c-1.181-1.6-2.992-2.598-5.119-2.598-3.596-.079-6.64 2.992-6.562 6.588zM501.578 21.418c-.08 3.596 2.966 6.693 6.536 6.615 3.596.078 6.667-3.02 6.589-6.616 0-3.648-2.94-6.588-6.563-6.588-3.596-.079-6.641 2.94-6.563 6.588zm11.76.026c0 2.992-2.31 5.355-5.224 5.355s-5.171-2.363-5.171-5.355c0-3.045 2.257-5.381 5.197-5.381 2.888 0 5.198 2.336 5.198 5.38zM536.674 19.764c0-2.966-1.68-4.935-4.515-4.935-2.021 0-3.544.997-4.384 2.467-.656-1.548-2.021-2.467-3.99-2.467-1.68 0-3.071.682-3.911 1.916v-1.654h-1.26V27.77h1.312v-7.901c0-2.205 1.497-3.806 3.675-3.806 2.1 0 3.387 1.522 3.387 3.806v7.901h1.312v-8.111c0-1.969 1.549-3.596 3.675-3.596 2.1 0 3.36 1.522 3.36 3.806v7.901h1.339v-8.006zM540.375 21.418c-.079 3.596 2.966 6.693 6.536 6.615 3.597.078 6.668-3.02 6.589-6.616 0-3.648-2.94-6.588-6.563-6.588-3.596-.079-6.64 2.94-6.562 6.588zm11.76.026c0 2.992-2.31 5.355-5.224 5.355-2.913 0-5.171-2.363-5.171-5.355 0-3.045 2.257-5.381 5.197-5.381 2.888 0 5.198 2.336 5.198 5.38zM564.578 22.966c0 3.071 2.178 5.066 4.987 5.066 2.782 0 4.961-1.995 4.961-5.066v-7.875h-1.312v7.928c0 2.31-1.575 3.78-3.649 3.78-2.1 0-3.675-1.47-3.675-3.78V15.09h-1.312v7.875zM597.285 19.764c0-2.966-1.68-4.935-4.515-4.935-2.021 0-3.544.997-4.384 2.467-.656-1.548-2.021-2.467-3.99-2.467-1.68 0-3.071.682-3.911 1.916v-1.654h-1.26V27.77h1.313v-7.901c0-2.205 1.496-3.806 3.675-3.806 2.1 0 3.386 1.522 3.386 3.806v7.901h1.312v-8.111c0-1.969 1.549-3.596 3.675-3.596 2.1 0 3.36 1.522 3.36 3.806v7.901h1.339v-8.006zM610.961 19.816c0-3.228-1.89-4.987-4.751-4.987-2.021 0-3.623.866-4.856 2.625l.918.735c1.077-1.392 2.258-2.127 3.86-2.127 2.126 0 3.49 1.287 3.49 3.702v1.444h-4.41c-2.65 0-4.41 1.312-4.41 3.386 0 1.076.42 1.942 1.26 2.546.84.604 1.864.893 3.098.893 1.995 0 3.623-.814 4.541-2.258v1.995h1.26zm-1.338 3.229c0 2.179-1.995 3.833-4.332 3.833-1.706 0-3.123-.814-3.123-2.363 0-1.391 1.102-2.179 3.176-2.179h4.279zM631.331 15.091l-4.646 10.684-4.672-10.684h-1.418l5.827 12.941h.552l5.775-12.94zM636.03 27.77h1.313V15.091h-1.313zm-.499-17.561c0 .63.499 1.155 1.155 1.155.63 0 1.155-.525 1.155-1.155s-.525-1.155-1.155-1.155c-.656 0-1.155.525-1.155 1.155zM648.578 26.615c-.657.131-1.26.21-1.76.21-1.705 0-2.755-.735-2.755-2.651v-7.875h4.095V15.09h-4.095v-3.596h-1.34v3.596h-2.204V16.3h2.205v7.927c0 2.625 1.496 3.806 3.885 3.806.656 0 1.312-.078 1.969-.262v-1.155zM658.028 15.091c-.132 0-.473-.078-.814-.078-1.759 0-3.282.76-4.2 2.23v-2.152h-1.26V27.77h1.312v-7.455c0-2.546 2.126-4.069 4.305-4.069h.656v-1.155zM660.941 27.77h1.313V15.091h-1.313zm-.499-17.561c0 .63.5 1.155 1.155 1.155.63 0 1.155-.525 1.155-1.155s-.525-1.155-1.155-1.155c-.656 0-1.155.525-1.155 1.155zM677.085 19.764c0-2.94-1.732-4.935-4.646-4.935-1.759 0-3.176.709-4.043 1.969V15.09h-1.26V27.77h1.313v-7.927c0-1.077.341-1.995 1.05-2.704.708-.709 1.627-1.076 2.73-1.076 2.178 0 3.543 1.548 3.543 3.78v7.927h1.313v-8.006zM692.783 21.733c.078-.29.105-.71.105-1.26 0-3.387-2.547-5.644-5.67-5.644-3.492-.079-6.484 3.018-6.405 6.615-.08 3.596 2.966 6.667 6.562 6.588 2.021 0 3.833-.892 5.093-2.362l-.84-.866c-1.13 1.338-2.547 1.995-4.227 1.995-2.861 0-5.066-2.1-5.223-5.067zM682.23 20.55c.184-1.312.735-2.388 1.654-3.228.919-.867 1.995-1.287 3.281-1.287 2.441 0 4.463 1.759 4.358 4.515zM712.496 15.091l-4.646 10.684-4.672-10.684h-1.418l5.827 12.941h.552l5.775-12.94zM717.195 27.77h1.313V15.091h-1.313zm-.499-17.561c0 .63.499 1.155 1.155 1.155.63 0 1.155-.525 1.155-1.155s-.525-1.155-1.155-1.155c-.656 0-1.155.525-1.155 1.155zM729.664 15.091c-.131 0-.473-.078-.814-.078-1.759 0-3.281.76-4.2 2.23v-2.152h-1.26V27.77h1.313v-7.455c0-2.546 2.126-4.069 4.305-4.069h.656v-1.155zM738.93 26.615c-.656.131-1.26.21-1.759.21-1.706 0-2.756-.735-2.756-2.651v-7.875h4.095V15.09h-4.095v-3.596h-1.339v3.596h-2.205V16.3h2.205v7.927c0 2.625 1.497 3.806 3.885 3.806.657 0 1.313-.078 1.969-.262v-1.155zM741.923 22.966c0 3.071 2.178 5.066 4.987 5.066 2.783 0 4.961-1.995 4.961-5.066v-7.875h-1.312v7.928c0 2.31-1.575 3.78-3.649 3.78-2.1 0-3.675-1.47-3.675-3.78V15.09h-1.312v7.875zM765.574 19.816c0-3.228-1.89-4.987-4.751-4.987-2.022 0-3.623.866-4.857 2.625l.919.735c1.076-1.392 2.258-2.127 3.859-2.127 2.126 0 3.491 1.287 3.491 3.702v1.444h-4.41c-2.651 0-4.41 1.312-4.41 3.386 0 1.076.42 1.942 1.26 2.546.84.604 1.864.893 3.098.893 1.995 0 3.622-.814 4.54-2.258v1.995h1.26zm-1.339 3.229c0 2.179-1.995 3.833-4.331 3.833-1.706 0-3.124-.814-3.124-2.363 0-1.391 1.103-2.179 3.176-2.179h4.279zM770.246 27.77h1.313V8.082h-1.313z" stroke-width=".02625"/></g><g fill="#fff" stroke="#000"><path d="M76.38 60.788c0-3.65-2.756-6.59-6.3-6.59-2.205 0-4.226 1.103-5.171 2.81V54.46h-1.26v17.404h1.312v-7.166c.971 1.68 2.993 2.704 5.119 2.704 3.544 0 6.3-2.914 6.3-6.616zm-1.365.026c0 3.045-2.153 5.355-5.066 5.355-2.625 0-4.988-1.733-4.988-5.381 0-3.623 2.363-5.355 4.988-5.355 2.913 0 5.066 2.362 5.066 5.38zM89.295 59.186c0-3.228-1.89-4.987-4.751-4.987-2.022 0-3.623.866-4.857 2.625l.92.735c1.075-1.391 2.257-2.126 3.858-2.126 2.126 0 3.491 1.286 3.491 3.7v1.445h-4.41c-2.651 0-4.41 1.312-4.41 3.386 0 1.076.42 1.942 1.26 2.546.84.604 1.864.892 3.098.892 1.995 0 3.622-.813 4.541-2.257v1.995h1.26zm-1.339 3.229c0 2.179-1.995 3.833-4.331 3.833-1.706 0-3.124-.814-3.124-2.363 0-1.391 1.103-2.179 3.176-2.179h4.28zM100.241 54.461c-.131 0-.472-.078-.814-.078-1.758 0-3.28.76-4.2 2.23v-2.152h-1.26V67.14h1.313v-7.455c0-2.546 2.126-4.069 4.305-4.069h.656v-1.155zM111.896 59.186c0-3.228-1.89-4.987-4.751-4.987-2.021 0-3.623.866-4.856 2.625l.918.735c1.077-1.391 2.258-2.126 3.86-2.126 2.125 0 3.49 1.286 3.49 3.7v1.445h-4.41c-2.65 0-4.41 1.312-4.41 3.386 0 1.076.42 1.942 1.26 2.546.84.604 1.864.892 3.098.892 1.995 0 3.622-.813 4.541-2.257v1.995h1.26zm-1.339 3.229c0 2.179-1.995 3.833-4.33 3.833-1.707 0-3.125-.814-3.125-2.363 0-1.391 1.103-2.179 3.177-2.179h4.278zM141.979 59.134c0-2.967-1.68-4.935-4.515-4.935-2.022 0-3.544.997-4.384 2.467-.656-1.548-2.021-2.467-3.99-2.467-1.68 0-3.071.682-3.911 1.916v-1.654h-1.26V67.14h1.312v-7.901c0-2.205 1.496-3.807 3.675-3.807 2.1 0 3.386 1.523 3.386 3.807v7.901h1.313v-8.111c0-1.969 1.549-3.597 3.675-3.597 2.1 0 3.36 1.523 3.36 3.807v7.901h1.339v-8.006zM145.68 60.788c-.079 3.596 2.966 6.693 6.536 6.615 3.596.078 6.668-3.02 6.589-6.616 0-3.648-2.94-6.588-6.563-6.588-3.596-.079-6.64 2.94-6.562 6.589zm11.76.026c0 2.992-2.31 5.355-5.224 5.355s-5.171-2.363-5.171-5.355c0-3.045 2.257-5.381 5.197-5.381 2.888 0 5.198 2.336 5.198 5.38zM161.482 64.778c1.077 1.574 2.757 2.624 4.857 2.624 1.181 0 2.178-.314 2.992-.918.814-.604 1.234-1.47 1.234-2.599 0-1.759-1.155-2.704-3.281-3.649l-1.182-.525c-1.706-.735-2.388-1.207-2.388-2.283 0-1.287 1.102-1.995 2.572-1.995 1.234 0 2.336.55 3.308 1.627l.866-.84c-.945-1.234-2.336-2.021-4.095-2.021-1.129 0-2.074.288-2.861.892-.788.604-1.182 1.391-1.182 2.415 0 1.654 1.13 2.52 3.124 3.386l1.155.5c1.785.813 2.468 1.154 2.599 2.545 0 1.444-1.234 2.232-2.835 2.232s-2.809-.788-3.964-2.258l-.919.866zM181.012 65.985c-.656.131-1.26.21-1.758.21-1.707 0-2.757-.735-2.757-2.651v-7.875h4.095V54.46h-4.095v-3.596h-1.338v3.596h-2.205v1.208h2.205v7.927c0 2.625 1.496 3.807 3.885 3.807.656 0 1.312-.08 1.968-.263v-1.155zM190.462 54.461c-.13 0-.472-.078-.813-.078-1.759 0-3.282.76-4.2 2.23v-2.152h-1.26V67.14h1.312v-7.455c0-2.546 2.126-4.069 4.305-4.069h.656v-1.155zM202.117 59.186c0-3.228-1.89-4.987-4.75-4.987-2.022 0-3.623.866-4.857 2.625l.919.735c1.076-1.391 2.257-2.126 3.858-2.126 2.127 0 3.492 1.286 3.492 3.7v1.445h-4.41c-2.652 0-4.41 1.312-4.41 3.386 0 1.076.42 1.942 1.26 2.546.84.604 1.863.892 3.097.892 1.995 0 3.623-.813 4.541-2.257v1.995h1.26zm-1.338 3.229c0 2.179-1.995 3.833-4.332 3.833-1.706 0-3.123-.814-3.123-2.363 0-1.391 1.102-2.179 3.176-2.179h4.279zM213.064 54.461c-.132 0-.473-.078-.814-.078-1.759 0-3.281.76-4.2 2.23v-2.152h-1.26V67.14h1.312v-7.455c0-2.546 2.127-4.069 4.305-4.069h.657v-1.155zM236.059 60.788c0-3.65-2.757-6.59-6.3-6.59-2.205 0-4.227 1.103-5.172 2.81V54.46h-1.26v17.404h1.313v-7.166c.971 1.68 2.992 2.704 5.119 2.704 3.543 0 6.3-2.914 6.3-6.616zm-1.365.026c0 3.045-2.153 5.355-5.067 5.355-2.625 0-4.987-1.733-4.987-5.381 0-3.623 2.362-5.355 4.987-5.355 2.914 0 5.067 2.362 5.067 5.38zM246.244 54.461c-.132 0-.473-.078-.814-.078-1.759 0-3.281.76-4.2 2.23v-2.152h-1.26V67.14h1.312v-7.455c0-2.546 2.127-4.069 4.305-4.069h.657v-1.155zM247.924 60.788c-.079 3.596 2.966 6.693 6.536 6.615 3.596.078 6.667-3.02 6.589-6.616 0-3.648-2.94-6.588-6.563-6.588-3.596-.079-6.641 2.94-6.562 6.589zm11.76.026c0 2.992-2.31 5.355-5.224 5.355s-5.171-2.363-5.171-5.355c0-3.045 2.257-5.381 5.197-5.381 2.888 0 5.198 2.336 5.198 5.38zM275.407 47.453v9.476c-.97-1.68-2.94-2.73-5.118-2.73-3.623 0-6.3 2.914-6.3 6.615 0 3.649 2.756 6.589 6.3 6.589 2.205 0 4.226-1.077 5.171-2.836v2.573h1.26V47.453zm0 13.36c0 3.623-2.362 5.356-4.987 5.356-2.914 0-5.066-2.363-5.066-5.381 0-3.045 2.152-5.355 5.066-5.355 2.625 0 4.987 1.732 4.987 5.38zM281.419 62.336c0 3.072 2.178 5.067 4.987 5.067 2.783 0 4.961-1.996 4.961-5.067v-7.875h-1.312v7.928c0 2.31-1.575 3.78-3.649 3.78-2.1 0-3.675-1.47-3.675-3.78V54.46h-1.312v7.875zM302.419 65.985c-.657.131-1.26.21-1.759.21-1.706 0-2.756-.735-2.756-2.651v-7.875h4.095V54.46h-4.095v-3.596h-1.339v3.596h-2.205v1.208h2.205v7.927c0 2.625 1.496 3.807 3.885 3.807.656 0 1.312-.08 1.969-.263v-1.155zM304.361 60.788c-.079 3.596 2.966 6.693 6.536 6.615 3.597.078 6.668-3.02 6.59-6.616 0-3.648-2.94-6.588-6.563-6.588-3.597-.079-6.642 2.94-6.563 6.589zm11.76.026c0 2.992-2.31 5.355-5.224 5.355-2.913 0-5.17-2.363-5.17-5.355 0-3.045 2.257-5.381 5.197-5.381 2.887 0 5.197 2.336 5.197 5.38zM320.164 64.778c1.076 1.574 2.756 2.624 4.856 2.624 1.181 0 2.179-.314 2.992-.918.814-.604 1.234-1.47 1.234-2.599 0-1.759-1.155-2.704-3.281-3.649l-1.181-.525c-1.707-.735-2.389-1.207-2.389-2.283 0-1.287 1.102-1.995 2.572-1.995 1.234 0 2.337.55 3.308 1.627l.866-.84c-.945-1.234-2.336-2.021-4.095-2.021-1.129 0-2.074.288-2.861.892-.788.604-1.181 1.391-1.181 2.415 0 1.654 1.128 2.52 3.123 3.386l1.155.5c1.785.813 2.468 1.154 2.6 2.545 0 1.444-1.235 2.232-2.836 2.232-1.601 0-2.809-.788-3.964-2.258l-.918.866zM333.525 71.865h1.129l.945-6.694h-1.628zM360.772 60.788c0-3.65-2.756-6.59-6.3-6.59-2.205 0-4.226 1.103-5.17 2.81V54.46h-1.26v17.404h1.312v-7.166c.971 1.68 2.992 2.704 5.118 2.704 3.544 0 6.3-2.914 6.3-6.616zm-1.365.026c0 3.045-2.152 5.355-5.066 5.355-2.625 0-4.987-1.733-4.987-5.381 0-3.623 2.362-5.355 4.987-5.355 2.914 0 5.066 2.362 5.066 5.38zM370.957 54.461c-.13 0-.472-.078-.813-.078-1.759 0-3.282.76-4.2 2.23v-2.152h-1.26V67.14h1.312v-7.455c0-2.546 2.126-4.069 4.305-4.069h.656v-1.155zM384.607 61.102c.08-.288.105-.708.105-1.26 0-3.386-2.546-5.643-5.67-5.643-3.49-.079-6.483 3.019-6.405 6.615-.078 3.596 2.967 6.667 6.563 6.589 2.021 0 3.832-.893 5.092-2.363l-.84-.866c-1.128 1.339-2.546 1.995-4.226 1.995-2.861 0-5.066-2.1-5.224-5.066zm-10.552-1.18c.184-1.313.735-2.39 1.654-3.23.918-.866 1.995-1.286 3.281-1.286 2.441 0 4.462 1.759 4.357 4.515zM387.652 60.788c-.078 3.596 2.967 6.693 6.537 6.615a6.316 6.316 0 005.145-2.6l-.945-.76c-1.103 1.417-2.494 2.126-4.2 2.126-2.914 0-5.172-2.363-5.172-5.381 0-2.967 2.258-5.355 5.198-5.355 1.706 0 3.097.708 4.174 2.126l.945-.761c-1.182-1.602-2.993-2.6-5.119-2.6-3.596-.078-6.641 2.993-6.563 6.59zm3.413 11.077a6.084 6.084 0 001.759.263c1.916 0 3.15-1.234 3.15-2.836 0-1.18-.735-2.126-1.864-2.65l-.499.393c.709.604 1.129 1.234 1.129 2.1 0 1.26-.866 1.89-2.1 1.89a6.76 6.76 0 01-1.575-.184zM401.88 60.788c-.079 3.596 2.966 6.693 6.536 6.615 3.596.078 6.668-3.02 6.589-6.616 0-3.648-2.94-6.588-6.563-6.588-3.596-.079-6.64 2.94-6.562 6.589zm11.76.026c0 2.992-2.31 5.355-5.224 5.355s-5.171-2.363-5.171-5.355c0-3.045 2.257-5.381 5.197-5.381 2.888 0 5.198 2.336 5.198 5.38zM417.682 64.778c1.077 1.574 2.757 2.624 4.857 2.624 1.181 0 2.178-.314 2.992-.918.814-.604 1.234-1.47 1.234-2.599 0-1.759-1.155-2.704-3.281-3.649l-1.182-.525c-1.706-.735-2.388-1.207-2.388-2.283 0-1.287 1.102-1.995 2.572-1.995 1.234 0 2.336.55 3.308 1.627l.866-.84c-.945-1.234-2.336-2.021-4.095-2.021-1.129 0-2.074.288-2.861.892-.788.604-1.182 1.391-1.182 2.415 0 1.654 1.13 2.52 3.124 3.386l1.155.5c1.785.813 2.468 1.154 2.599 2.545 0 1.444-1.234 2.232-2.835 2.232s-2.809-.788-3.964-2.258l-.919.866zM449.209 61.102c.078-.288.105-.708.105-1.26 0-3.386-2.547-5.643-5.67-5.643-3.492-.079-6.484 3.019-6.405 6.615-.079 3.596 2.966 6.667 6.562 6.589 2.021 0 3.833-.893 5.093-2.363l-.84-.866c-1.129 1.339-2.547 1.995-4.227 1.995-2.86 0-5.066-2.1-5.223-5.066zm-10.553-1.18c.184-1.313.735-2.39 1.654-3.23.919-.866 1.995-1.286 3.281-1.286 2.441 0 4.463 1.759 4.358 4.515zM473.306 60.788c0-3.65-2.756-6.59-6.3-6.59-2.205 0-4.226 1.103-5.171 2.81V54.46h-1.26v17.404h1.312v-7.166c.972 1.68 2.993 2.704 5.12 2.704 3.543 0 6.3-2.914 6.3-6.616zm-1.365.026c0 3.045-2.152 5.355-5.066 5.355-2.625 0-4.988-1.733-4.988-5.381 0-3.623 2.363-5.355 4.988-5.355 2.914 0 5.066 2.362 5.066 5.38zM483.491 54.461c-.131 0-.472-.078-.814-.078-1.758 0-3.28.76-4.2 2.23v-2.152h-1.26V67.14h1.313v-7.455c0-2.546 2.126-4.069 4.305-4.069h.656v-1.155zM485.171 60.788c-.079 3.596 2.966 6.693 6.536 6.615 3.597.078 6.668-3.02 6.59-6.616 0-3.648-2.94-6.588-6.563-6.588-3.597-.079-6.642 2.94-6.563 6.589zm11.76.026c0 2.992-2.31 5.355-5.224 5.355-2.913 0-5.17-2.363-5.17-5.355 0-3.045 2.257-5.381 5.197-5.381 2.887 0 5.197 2.336 5.197 5.38zM520.267 59.134c0-2.967-1.68-4.935-4.515-4.935-2.02 0-3.543.997-4.383 2.467-.657-1.548-2.022-2.467-3.99-2.467-1.68 0-3.072.682-3.912 1.916v-1.654h-1.26V67.14h1.313v-7.901c0-2.205 1.496-3.807 3.675-3.807 2.1 0 3.386 1.523 3.386 3.807v7.901h1.313v-8.111c0-1.969 1.548-3.597 3.675-3.597 2.1 0 3.36 1.523 3.36 3.807v7.901h1.338v-8.006zM523.969 60.788c-.079 3.596 2.966 6.693 6.536 6.615 3.596.078 6.667-3.02 6.589-6.616 0-3.648-2.94-6.588-6.563-6.588-3.596-.079-6.641 2.94-6.562 6.589zm11.76.026c0 2.992-2.31 5.355-5.224 5.355s-5.171-2.363-5.171-5.355c0-3.045 2.257-5.381 5.197-5.381 2.888 0 5.198 2.336 5.198 5.38zM540.034 60.788c-.079 3.596 2.966 6.693 6.536 6.615a6.316 6.316 0 005.145-2.6l-.945-.76c-1.103 1.417-2.494 2.126-4.2 2.126-2.914 0-5.171-2.363-5.171-5.381 0-2.967 2.257-5.355 5.197-5.355 1.706 0 3.098.708 4.174 2.126l.945-.761c-1.181-1.602-2.993-2.6-5.119-2.6-3.596-.078-6.641 2.993-6.562 6.59zm3.412 11.077a6.084 6.084 0 001.759.263c1.916 0 3.15-1.234 3.15-2.836 0-1.18-.735-2.126-1.864-2.65l-.499.393c.71.604 1.13 1.234 1.13 2.1 0 1.26-.867 1.89-2.1 1.89a6.76 6.76 0 01-1.576-.184zM554.261 60.788c-.079 3.596 2.966 6.693 6.536 6.615 3.597.078 6.668-3.02 6.59-6.616 0-3.648-2.94-6.588-6.563-6.588-3.597-.079-6.642 2.94-6.563 6.589zm11.76.026c0 2.992-2.31 5.355-5.224 5.355-2.913 0-5.17-2.363-5.17-5.355 0-3.045 2.257-5.381 5.197-5.381 2.887 0 5.197 2.336 5.197 5.38zm-5.092-10.29c.525.525 1.102.787 1.706.787 1.234 0 1.89-1.076 1.89-2.362 0-.263 0-.446-.026-.578h-1.155v.499c0 .709-.289 1.208-.84 1.208-.394 0-.683-.184-1.129-.63l-.656-.657c-.525-.525-1.077-.787-1.68-.787-1.234 0-1.89 1.024-1.89 2.362 0 .237 0 .447.026.578h1.155v-.525c0-.709.262-1.181.814-1.181.42 0 .682.183 1.128.63zM582.296 61.102c.079-.288.105-.708.105-1.26 0-3.386-2.546-5.643-5.67-5.643-3.491-.079-6.484 3.019-6.405 6.615-.079 3.596 2.966 6.667 6.563 6.589 2.021 0 3.832-.893 5.092-2.363l-.84-.866c-1.129 1.339-2.546 1.995-4.226 1.995-2.861 0-5.066-2.1-5.224-5.066zm-10.552-1.18c.183-1.313.735-2.39 1.653-3.23.92-.866 1.995-1.286 3.282-1.286 2.441 0 4.462 1.759 4.357 4.515zM585.079 64.778c1.076 1.574 2.756 2.624 4.856 2.624 1.181 0 2.179-.314 2.992-.918.814-.604 1.234-1.47 1.234-2.599 0-1.759-1.155-2.704-3.281-3.649l-1.181-.525c-1.707-.735-2.389-1.207-2.389-2.283 0-1.287 1.102-1.995 2.572-1.995 1.234 0 2.337.55 3.308 1.627l.866-.84c-.945-1.234-2.336-2.021-4.095-2.021-1.129 0-2.074.288-2.861.892-.788.604-1.181 1.391-1.181 2.415 0 1.654 1.128 2.52 3.123 3.386l1.155.5c1.785.813 2.468 1.154 2.6 2.545 0 1.444-1.235 2.232-2.836 2.232-1.601 0-2.809-.788-3.964-2.258l-.918.866zM598.44 71.865h1.129l.945-6.694h-1.628zM625.687 60.788c0-3.65-2.756-6.59-6.3-6.59-2.205 0-4.226 1.103-5.17 2.81V54.46h-1.26v17.404h1.312v-7.166c.971 1.68 2.992 2.704 5.118 2.704 3.544 0 6.3-2.914 6.3-6.616zm-1.365.026c0 3.045-2.152 5.355-5.066 5.355-2.625 0-4.987-1.733-4.987-5.381 0-3.623 2.362-5.355 4.987-5.355 2.914 0 5.066 2.362 5.066 5.38zM628.627 60.788c-.078 3.596 2.967 6.693 6.537 6.615 3.596.078 6.667-3.02 6.588-6.616 0-3.648-2.94-6.588-6.562-6.588-3.596-.079-6.641 2.94-6.563 6.589zm11.76.026c0 2.992-2.31 5.355-5.223 5.355-2.914 0-5.172-2.363-5.172-5.355 0-3.045 2.258-5.381 5.198-5.381 2.887 0 5.197 2.336 5.197 5.38zM656.111 47.453v9.476c-.971-1.68-2.94-2.73-5.119-2.73-3.622 0-6.3 2.914-6.3 6.615 0 3.649 2.757 6.589 6.3 6.589 2.205 0 4.227-1.077 5.172-2.836v2.573h1.26V47.453zm0 13.36c0 3.623-2.362 5.356-4.987 5.356-2.914 0-5.067-2.363-5.067-5.381 0-3.045 2.153-5.355 5.067-5.355 2.625 0 4.987 1.732 4.987 5.38zM673.305 61.102c.079-.288.105-.708.105-1.26 0-3.386-2.546-5.643-5.67-5.643-3.491-.079-6.484 3.019-6.405 6.615-.079 3.596 2.966 6.667 6.563 6.589 2.02 0 3.832-.893 5.092-2.363l-.84-.866c-1.129 1.339-2.546 1.995-4.226 1.995-2.862 0-5.067-2.1-5.224-5.066zm-10.553-1.18c.184-1.313.735-2.39 1.654-3.23.919-.866 1.995-1.286 3.281-1.286 2.442 0 4.463 1.759 4.358 4.515zM687.27 59.134c0-2.94-1.733-4.935-4.646-4.935-1.759 0-3.177.708-4.043 1.968v-1.706h-1.26V67.14h1.313v-7.927c0-1.077.341-1.996 1.05-2.704.708-.709 1.627-1.077 2.73-1.077 2.178 0 3.543 1.55 3.543 3.78v7.928h1.313v-8.006zM702.416 47.453v9.476c-.971-1.68-2.94-2.73-5.119-2.73-3.622 0-6.3 2.914-6.3 6.615 0 3.649 2.757 6.589 6.3 6.589 2.205 0 4.227-1.077 5.172-2.836v2.573h1.26V47.453zm0 13.36c0 3.623-2.362 5.356-4.987 5.356-2.914 0-5.067-2.363-5.067-5.381 0-3.045 2.153-5.355 5.067-5.355 2.625 0 4.987 1.732 4.987 5.38zM707.64 60.788c-.079 3.596 2.966 6.693 6.536 6.615 3.596.078 6.668-3.02 6.589-6.616 0-3.648-2.94-6.588-6.563-6.588-3.596-.079-6.64 2.94-6.562 6.589zm11.76.026c0 2.992-2.31 5.355-5.224 5.355s-5.171-2.363-5.171-5.355c0-3.045 2.257-5.381 5.197-5.381 2.888 0 5.198 2.336 5.198 5.38zM732.026 67.14h1.313V47.452h-1.313zM749.22 61.102c.079-.288.105-.708.105-1.26 0-3.386-2.546-5.643-5.67-5.643-3.491-.079-6.484 3.019-6.405 6.615-.079 3.596 2.966 6.667 6.563 6.589 2.02 0 3.832-.893 5.092-2.363l-.84-.866c-1.129 1.339-2.546 1.995-4.226 1.995-2.862 0-5.067-2.1-5.224-5.066zm-10.553-1.18c.184-1.313.735-2.39 1.654-3.23.919-.866 1.995-1.286 3.281-1.286 2.442 0 4.463 1.759 4.358 4.515zM761.846 54.461L757.2 65.145l-4.673-10.684h-1.417l5.827 12.941h.552l5.775-12.94zM775.024 59.186c0-3.228-1.89-4.987-4.751-4.987-2.022 0-3.623.866-4.857 2.625l.919.735c1.076-1.391 2.257-2.126 3.859-2.126 2.126 0 3.491 1.286 3.491 3.7v1.445h-4.41c-2.651 0-4.41 1.312-4.41 3.386 0 1.076.42 1.942 1.26 2.546.84.604 1.864.892 3.098.892 1.995 0 3.622-.813 4.54-2.257v1.995h1.26zm-1.339 3.229c0 2.179-1.995 3.833-4.331 3.833-1.706 0-3.124-.814-3.124-2.363 0-1.391 1.103-2.179 3.176-2.179h4.279zM785.97 54.461c-.131 0-.472-.078-.814-.078-1.758 0-3.281.76-4.2 2.23v-2.152h-1.26V67.14h1.313v-7.455c0-2.546 2.126-4.069 4.305-4.069h.656v-1.155z" stroke-width=".02625"/></g><g fill="#fff" stroke="#000"><path d="M72.81 100.157c-.079 3.597 2.966 6.694 6.536 6.615 3.596.08 6.668-3.018 6.589-6.615 0-3.648-2.94-6.588-6.563-6.588-3.596-.079-6.64 2.94-6.562 6.588zm11.76.027c0 2.992-2.31 5.355-5.224 5.355s-5.171-2.363-5.171-5.355c0-3.045 2.257-5.382 5.197-5.382 2.888 0 5.198 2.337 5.198 5.382zM97.012 101.706c0 3.071 2.18 5.066 4.988 5.066 2.782 0 4.961-1.995 4.961-5.066v-7.875h-1.312v7.928c0 2.31-1.575 3.78-3.649 3.78-2.1 0-3.675-1.47-3.675-3.78V93.83h-1.313v7.875zM110.426 104.147c1.076 1.575 2.756 2.625 4.856 2.625 1.182 0 2.18-.315 2.993-.918.814-.604 1.234-1.47 1.234-2.599 0-1.759-1.155-2.704-3.282-3.649l-1.18-.525c-1.707-.735-2.39-1.207-2.39-2.284 0-1.286 1.103-1.995 2.573-1.995 1.234 0 2.336.552 3.307 1.628l.867-.84c-.945-1.234-2.337-2.021-4.095-2.021-1.129 0-2.074.288-2.862.892-.787.604-1.18 1.391-1.18 2.415 0 1.654 1.128 2.52 3.123 3.386l1.155.5c1.785.813 2.467 1.154 2.599 2.545 0 1.444-1.234 2.232-2.835 2.232-1.602 0-2.809-.788-3.964-2.258l-.919.866zM123.42 101.706c0 3.071 2.179 5.066 4.987 5.066 2.783 0 4.962-1.995 4.962-5.066v-7.875h-1.313v7.928c0 2.31-1.575 3.78-3.649 3.78-2.1 0-3.675-1.47-3.675-3.78V93.83h-1.312v7.875zM147.071 98.556c0-3.229-1.89-4.987-4.751-4.987-2.021 0-3.623.866-4.856 2.625l.918.735c1.077-1.392 2.258-2.127 3.86-2.127 2.125 0 3.49 1.287 3.49 3.702v1.443h-4.41c-2.65 0-4.41 1.313-4.41 3.387 0 1.076.42 1.942 1.26 2.546.84.604 1.864.892 3.098.892 1.995 0 3.622-.813 4.541-2.257v1.995h1.26zm-1.339 3.229c0 2.179-1.995 3.833-4.33 3.833-1.707 0-3.125-.814-3.125-2.363 0-1.391 1.103-2.179 3.177-2.179h4.278zm-3.937-10.08h1.05l2.966-5.434v-.236h-1.627zM158.017 93.831c-.13 0-.472-.079-.813-.079-1.759 0-3.282.762-4.2 2.232V93.83h-1.26v12.679h1.312v-7.455c0-2.546 2.126-4.069 4.305-4.069h.657v-1.155zM160.931 106.51h1.313V93.831h-1.313zm-.499-17.561c0 .63.5 1.155 1.155 1.155.63 0 1.155-.525 1.155-1.155s-.525-1.155-1.155-1.155c-.656 0-1.155.525-1.155 1.155zM166.155 100.157c-.079 3.597 2.966 6.694 6.536 6.615 3.596.08 6.668-3.018 6.589-6.615 0-3.648-2.94-6.588-6.563-6.588-3.596-.079-6.64 2.94-6.562 6.588zm11.76.027c0 2.992-2.31 5.355-5.224 5.355s-5.171-2.363-5.171-5.355c0-3.045 2.257-5.382 5.197-5.382 2.888 0 5.198 2.337 5.198 5.382zM199.545 98.556c0-3.229-1.89-4.987-4.751-4.987-2.022 0-3.623.866-4.857 2.625l.92.735c1.075-1.392 2.257-2.127 3.858-2.127 2.126 0 3.491 1.287 3.491 3.702v1.443h-4.41c-2.651 0-4.41 1.313-4.41 3.387 0 1.076.42 1.942 1.26 2.546.84.604 1.864.892 3.098.892 1.995 0 3.622-.813 4.541-2.257v1.995h1.26zm-1.339 3.229c0 2.179-1.995 3.833-4.331 3.833-1.706 0-3.124-.814-3.124-2.363 0-1.391 1.103-2.179 3.176-2.179h4.28zM210.57 105.355c-.656.131-1.26.21-1.759.21-1.706 0-2.756-.735-2.756-2.651v-7.875h4.095V93.83h-4.095v-3.596h-1.339v3.596h-2.205v1.208h2.205v7.927c0 2.625 1.496 3.806 3.885 3.806.656 0 1.313-.078 1.969-.262v-1.155zM224.482 100.472c.08-.288.105-.708.105-1.26 0-3.386-2.546-5.643-5.67-5.643-3.49-.079-6.483 3.018-6.405 6.615-.078 3.596 2.967 6.667 6.563 6.588 2.021 0 3.832-.892 5.092-2.362l-.84-.866c-1.128 1.339-2.546 1.995-4.226 1.995-2.861 0-5.066-2.1-5.224-5.066zm-10.552-1.18c.184-1.313.735-2.39 1.654-3.23.918-.866 1.995-1.286 3.281-1.286 2.441 0 4.462 1.759 4.357 4.515zm4.305-7.587h1.05l2.966-5.434v-.236h-1.627zM234.877 100.157c-.078 3.597 2.967 6.694 6.537 6.615 3.596.08 6.667-3.018 6.588-6.615 0-3.648-2.94-6.588-6.562-6.588-3.596-.079-6.641 2.94-6.563 6.588zm11.76.027c0 2.992-2.31 5.355-5.223 5.355-2.914 0-5.172-2.363-5.172-5.355 0-3.045 2.258-5.382 5.198-5.382 2.887 0 5.197 2.337 5.197 5.382zM258.03 104.147c1.076 1.575 2.756 2.625 4.856 2.625 1.181 0 2.179-.315 2.993-.918.813-.604 1.233-1.47 1.233-2.599 0-1.759-1.155-2.704-3.28-3.649l-1.182-.525c-1.706-.735-2.389-1.207-2.389-2.284 0-1.286 1.103-1.995 2.573-1.995 1.233 0 2.336.552 3.307 1.628l.866-.84c-.945-1.234-2.336-2.021-4.095-2.021-1.128 0-2.073.288-2.86.892-.788.604-1.182 1.391-1.182 2.415 0 1.654 1.129 2.52 3.124 3.386l1.155.5c1.785.813 2.467 1.154 2.598 2.545 0 1.444-1.233 2.232-2.835 2.232-1.6 0-2.808-.788-3.963-2.258l-.919.866zM271.207 106.51h1.313V93.831h-1.313zm-.498-17.561c0 .63.499 1.155 1.155 1.155.63 0 1.155-.525 1.155-1.155s-.525-1.155-1.155-1.155c-.656 0-1.155.525-1.155 1.155zM283.755 105.355c-.656.131-1.26.21-1.759.21-1.706 0-2.756-.735-2.756-2.651v-7.875h4.095V93.83h-4.095v-3.596h-1.339v3.596h-2.205v1.208h2.205v7.927c0 2.625 1.496 3.806 3.885 3.806.656 0 1.313-.078 1.969-.262v-1.155zM297.667 100.472c.08-.288.105-.708.105-1.26 0-3.386-2.546-5.643-5.67-5.643-3.49-.079-6.483 3.018-6.405 6.615-.078 3.596 2.967 6.667 6.563 6.588 2.021 0 3.833-.892 5.093-2.362l-.84-.866c-1.13 1.339-2.547 1.995-4.227 1.995-2.861 0-5.066-2.1-5.224-5.066zm-10.552-1.18c.184-1.313.735-2.39 1.654-3.23.918-.866 1.995-1.286 3.281-1.286 2.441 0 4.462 1.759 4.357 4.515zM315.413 100.157c-.08 3.597 2.966 6.694 6.536 6.615 3.596.08 6.667-3.018 6.589-6.615 0-3.648-2.94-6.588-6.563-6.588-3.596-.079-6.641 2.94-6.563 6.588zm11.76.027c0 2.992-2.31 5.355-5.224 5.355s-5.171-2.363-5.171-5.355c0-3.045 2.257-5.382 5.197-5.382 2.887 0 5.197 2.337 5.197 5.382zM332.265 101.706c0 3.071 2.179 5.066 4.987 5.066 2.783 0 4.962-1.995 4.962-5.066v-7.875H340.9v7.928c0 2.31-1.575 3.78-3.649 3.78-2.1 0-3.675-1.47-3.675-3.78V93.83h-1.312v7.875zM364.71 86.822V96.3c-.971-1.68-2.94-2.73-5.119-2.73-3.622 0-6.3 2.913-6.3 6.615 0 3.648 2.757 6.588 6.3 6.588 2.205 0 4.227-1.076 5.172-2.835v2.573h1.26V86.822zm0 13.362c0 3.622-2.362 5.355-4.987 5.355-2.914 0-5.067-2.363-5.067-5.382 0-3.044 2.153-5.354 5.066-5.354 2.626 0 4.988 1.732 4.988 5.38zM370.905 106.51h1.313V93.831h-1.313zm-.499-17.561c0 .63.499 1.155 1.155 1.155.63 0 1.155-.525 1.155-1.155s-.525-1.155-1.155-1.155c-.656 0-1.155.525-1.155 1.155zM383.374 93.831c-.132 0-.473-.079-.814-.079-1.759 0-3.281.762-4.2 2.232V93.83h-1.26v12.679h1.312v-7.455c0-2.546 2.127-4.069 4.305-4.069h.657v-1.155zM397.024 100.472c.079-.288.105-.708.105-1.26 0-3.386-2.546-5.643-5.67-5.643-3.491-.079-6.484 3.018-6.405 6.615-.079 3.596 2.966 6.667 6.562 6.588 2.022 0 3.833-.892 5.093-2.362l-.84-.866c-1.129 1.339-2.546 1.995-4.226 1.995-2.862 0-5.067-2.1-5.224-5.066zm-10.553-1.18c.184-1.313.735-2.39 1.654-3.23.919-.866 1.995-1.286 3.281-1.286 2.441 0 4.463 1.759 4.358 4.515zM400.069 100.157c-.079 3.597 2.966 6.694 6.536 6.615a6.316 6.316 0 005.145-2.598l-.945-.762c-1.103 1.418-2.494 2.127-4.2 2.127-2.914 0-5.171-2.363-5.171-5.382 0-2.966 2.257-5.355 5.197-5.355 1.707 0 3.098.71 4.174 2.127l.945-.762c-1.181-1.6-2.992-2.598-5.119-2.598-3.596-.079-6.641 2.992-6.562 6.588zM415.53 106.51h1.313V93.831h-1.313zm-.499-17.561c0 .63.499 1.155 1.155 1.155.63 0 1.155-.525 1.155-1.155s-.525-1.155-1.155-1.155c-.656 0-1.155.525-1.155 1.155zM420.754 100.157c-.079 3.597 2.966 6.694 6.536 6.615 3.596.08 6.667-3.018 6.589-6.615 0-3.648-2.94-6.588-6.563-6.588-3.596-.079-6.641 2.94-6.562 6.588zm11.76.027c0 2.992-2.31 5.355-5.224 5.355s-5.171-2.363-5.171-5.355c0-3.045 2.257-5.382 5.197-5.382 2.888 0 5.198 2.337 5.198 5.382zM447.739 98.504c0-2.94-1.733-4.935-4.646-4.935-1.76 0-3.177.708-4.043 1.968v-1.706h-1.26v12.679h1.312v-7.928c0-1.076.342-1.994 1.05-2.703.71-.709 1.628-1.077 2.73-1.077 2.18 0 3.544 1.55 3.544 3.78v7.928h1.313v-8.006zM461.441 98.556c0-3.229-1.89-4.987-4.751-4.987-2.021 0-3.623.866-4.856 2.625l.918.735c1.077-1.392 2.258-2.127 3.86-2.127 2.125 0 3.49 1.287 3.49 3.702v1.443h-4.41c-2.65 0-4.41 1.313-4.41 3.387 0 1.076.42 1.942 1.26 2.546.84.604 1.864.892 3.098.892 1.995 0 3.622-.813 4.541-2.257v1.995h1.26zm-1.339 3.229c0 2.179-1.995 3.833-4.33 3.833-1.707 0-3.125-.814-3.125-2.363 0-1.391 1.103-2.179 3.177-2.179h4.278zm-3.937-10.08h1.05l2.966-5.434v-.236h-1.627zM465.169 98.924h5.985v-1.155h-5.985zM475.118 106.51h1.312V86.822h-1.313zM480.341 100.157c-.079 3.597 2.966 6.694 6.536 6.615 3.597.08 6.668-3.018 6.59-6.615 0-3.648-2.94-6.588-6.563-6.588-3.596-.079-6.641 2.94-6.563 6.588zm11.76.027c0 2.992-2.31 5.355-5.224 5.355-2.913 0-5.17-2.363-5.17-5.355 0-3.045 2.257-5.382 5.197-5.382 2.887 0 5.197 2.337 5.197 5.382zM513.731 98.556c0-3.229-1.89-4.987-4.751-4.987-2.021 0-3.623.866-4.856 2.625l.919.735c1.076-1.392 2.257-2.127 3.858-2.127 2.126 0 3.491 1.287 3.491 3.702v1.443h-4.41c-2.65 0-4.41 1.313-4.41 3.387 0 1.076.42 1.942 1.26 2.546.84.604 1.864.892 3.098.892 1.995 0 3.623-.813 4.541-2.257v1.995h1.26zm-1.338 3.229c0 2.179-1.995 3.833-4.332 3.833-1.706 0-3.123-.814-3.123-2.363 0-1.391 1.102-2.179 3.176-2.179h4.279zM524.756 105.355c-.656.131-1.26.21-1.758.21-1.707 0-2.757-.735-2.757-2.651v-7.875h4.095V93.83h-4.095v-3.596h-1.338v3.596h-2.205v1.208h2.205v7.927c0 2.625 1.496 3.806 3.885 3.806.656 0 1.312-.078 1.968-.262v-1.155zM538.669 100.472c.079-.288.105-.708.105-1.26 0-3.386-2.546-5.643-5.67-5.643-3.491-.079-6.484 3.018-6.405 6.615-.079 3.596 2.966 6.667 6.562 6.588 2.022 0 3.833-.892 5.093-2.362l-.84-.866c-1.129 1.339-2.546 1.995-4.226 1.995-2.862 0-5.067-2.1-5.224-5.066zm-10.553-1.18c.184-1.313.735-2.39 1.654-3.23.919-.866 1.995-1.286 3.281-1.286 2.441 0 4.463 1.759 4.358 4.515zm4.305-7.587h1.05l2.966-5.434v-.236h-1.627zM559.039 98.556c0-3.229-1.89-4.987-4.751-4.987-2.022 0-3.623.866-4.857 2.625l.919.735c1.076-1.392 2.257-2.127 3.859-2.127 2.126 0 3.491 1.287 3.491 3.702v1.443h-4.41c-2.651 0-4.41 1.313-4.41 3.387 0 1.076.42 1.942 1.26 2.546.84.604 1.864.892 3.098.892 1.995 0 3.622-.813 4.54-2.257v1.995h1.26zm-1.339 3.229c0 2.179-1.995 3.833-4.331 3.833-1.706 0-3.124-.814-3.124-2.363 0-1.391 1.103-2.179 3.176-2.179h4.279zM571.061 106.51h1.313V86.822h-1.313zM576.285 100.157c-.079 3.597 2.966 6.694 6.536 6.615 3.597.08 6.668-3.018 6.589-6.615 0-3.648-2.94-6.588-6.562-6.588-3.597-.079-6.642 2.94-6.563 6.588zm11.76.027c0 2.992-2.31 5.355-5.224 5.355-2.913 0-5.171-2.363-5.171-5.355 0-3.045 2.258-5.382 5.198-5.382 2.887 0 5.197 2.337 5.197 5.382zM589.358 111.34a6.24 6.24 0 001.443.157c2.337 0 3.833-1.18 3.833-3.806v-13.86h-1.313v13.808c0 1.968-.997 2.651-2.756 2.651-.394 0-.814-.026-1.208-.105zm3.465-22.391c0 .63.498 1.155 1.155 1.155.63 0 1.155-.525 1.155-1.155s-.525-1.155-1.155-1.155c-.657 0-1.155.525-1.155 1.155zM608.52 98.556c0-3.229-1.89-4.987-4.751-4.987-2.021 0-3.623.866-4.856 2.625l.918.735c1.077-1.392 2.258-2.127 3.859-2.127 2.126 0 3.491 1.287 3.491 3.702v1.443h-4.41c-2.651 0-4.41 1.313-4.41 3.387 0 1.076.42 1.942 1.26 2.546.84.604 1.864.892 3.098.892 1.995 0 3.622-.813 4.541-2.257v1.995h1.26zm-1.339 3.229c0 2.179-1.995 3.833-4.331 3.833-1.706 0-3.124-.814-3.124-2.363 0-1.391 1.103-2.179 3.177-2.179h4.278zM638.603 98.504c0-2.967-1.68-4.935-4.515-4.935-2.022 0-3.544.997-4.384 2.467-.656-1.549-2.021-2.467-3.99-2.467-1.68 0-3.071.682-3.911 1.916v-1.654h-1.26v12.679h1.312v-7.901c0-2.205 1.496-3.807 3.675-3.807 2.1 0 3.386 1.523 3.386 3.807v7.901h1.313v-8.111c0-1.969 1.549-3.597 3.675-3.597 2.1 0 3.36 1.523 3.36 3.807v7.901h1.339v-8.006zM652.279 98.556c0-3.229-1.89-4.987-4.751-4.987-2.022 0-3.623.866-4.857 2.625l.919.735c1.076-1.392 2.258-2.127 3.859-2.127 2.126 0 3.491 1.287 3.491 3.702v1.443h-4.41c-2.651 0-4.41 1.313-4.41 3.387 0 1.076.42 1.942 1.26 2.546.84.604 1.864.892 3.098.892 1.995 0 3.622-.813 4.54-2.257v1.995h1.26zm-1.339 3.229c0 2.179-1.995 3.833-4.331 3.833-1.706 0-3.124-.814-3.124-2.363 0-1.391 1.103-2.179 3.176-2.179h4.279zM656.951 106.51h1.313V93.831h-1.313zm-.498-17.561c0 .63.498 1.155 1.155 1.155.63 0 1.155-.525 1.155-1.155s-.525-1.155-1.155-1.155c-.657 0-1.155.525-1.155 1.155zM661.913 104.147c1.076 1.575 2.756 2.625 4.856 2.625 1.181 0 2.179-.315 2.992-.918.814-.604 1.234-1.47 1.234-2.599 0-1.759-1.155-2.704-3.281-3.649l-1.181-.525c-1.707-.735-2.39-1.207-2.39-2.284 0-1.286 1.103-1.995 2.573-1.995 1.234 0 2.337.552 3.308 1.628l.866-.84c-.945-1.234-2.336-2.021-4.095-2.021-1.129 0-2.074.288-2.861.892-.788.604-1.181 1.391-1.181 2.415 0 1.654 1.128 2.52 3.123 3.386l1.155.5c1.785.813 2.468 1.154 2.599 2.545 0 1.444-1.234 2.232-2.835 2.232s-2.809-.788-3.964-2.258l-.918.866zM695.171 100.157c0-3.648-2.756-6.588-6.3-6.588-2.205 0-4.226 1.102-5.171 2.808v-2.546h-1.26v17.404h1.313v-7.166c.97 1.68 2.992 2.703 5.118 2.703 3.544 0 6.3-2.913 6.3-6.615zm-1.365.027c0 3.045-2.152 5.355-5.066 5.355-2.625 0-4.987-1.733-4.987-5.382 0-3.622 2.362-5.354 4.987-5.354 2.914 0 5.066 2.362 5.066 5.38zM705.356 93.831c-.131 0-.472-.079-.813-.079-1.76 0-3.282.762-4.2 2.232V93.83h-1.26v12.679h1.312v-7.455c0-2.546 2.126-4.069 4.305-4.069h.656v-1.155zM707.036 100.157c-.078 3.597 2.967 6.694 6.537 6.615 3.596.08 6.667-3.018 6.588-6.615 0-3.648-2.94-6.588-6.562-6.588-3.596-.079-6.641 2.94-6.563 6.588zm11.76.027c0 2.992-2.31 5.355-5.223 5.355-2.914 0-5.172-2.363-5.172-5.355 0-3.045 2.258-5.382 5.198-5.382 2.887 0 5.197 2.337 5.197 5.382zm-5.696-8.479h1.05l2.966-5.434v-.236h-1.627zM733.024 106.51l-4.856-6.615 4.462-6.064h-1.575l-3.675 5.093-3.622-5.093h-1.575l4.41 6.011-4.804 6.668h1.575l4.042-5.67 4.043 5.67zM736.148 106.51h1.312V93.831h-1.312zm-.5-17.561c0 .63.5 1.155 1.156 1.155.63 0 1.155-.525 1.155-1.155s-.525-1.155-1.155-1.155c-.656 0-1.155.525-1.155 1.155zM760.403 98.504c0-2.967-1.68-4.935-4.515-4.935-2.022 0-3.544.997-4.384 2.467-.656-1.549-2.021-2.467-3.99-2.467-1.68 0-3.071.682-3.911 1.916v-1.654h-1.26v12.679h1.312v-7.901c0-2.205 1.496-3.807 3.675-3.807 2.1 0 3.386 1.523 3.386 3.807v7.901h1.313v-8.111c0-1.969 1.549-3.597 3.675-3.597 2.1 0 3.36 1.523 3.36 3.807v7.901h1.339v-8.006zM774.079 98.556c0-3.229-1.89-4.987-4.751-4.987-2.022 0-3.623.866-4.857 2.625l.919.735c1.076-1.392 2.258-2.127 3.859-2.127 2.126 0 3.491 1.287 3.491 3.702v1.443h-4.41c-2.651 0-4.41 1.313-4.41 3.387 0 1.076.42 1.942 1.26 2.546.84.604 1.864.892 3.098.892 1.995 0 3.622-.813 4.54-2.257v1.995h1.26zm-1.339 3.229c0 2.179-1.995 3.833-4.331 3.833-1.706 0-3.124-.814-3.124-2.363 0-1.391 1.103-2.179 3.176-2.179h4.279zM778.699 105.512c0 .735.604 1.26 1.26 1.26.735 0 1.312-.525 1.312-1.26 0-.813-.577-1.312-1.312-1.312-.709 0-1.26.551-1.26 1.312z" stroke-width=".02625"/></g></svg>