<svg width="465" height="197" viewBox="0 0 465 197" xmlns="http://www.w3.org/2000/svg"><g fill="#fff" stroke="#000"><path d="M2.572 27.77h1.365V20h4.515c3.256 0 5.25-2.021 5.25-4.804 0-2.73-1.994-4.751-5.25-4.751h-5.88zm1.365-9.004V11.68H8.4c2.494 0 3.885 1.444 3.885 3.544s-1.391 3.543-3.885 3.543zM15.724 21.418c-.079 3.596 2.966 6.693 6.536 6.615 3.596.078 6.667-3.02 6.589-6.616 0-3.648-2.94-6.588-6.563-6.588-3.596-.079-6.641 2.94-6.562 6.588zm11.76.026c0 2.992-2.31 5.355-5.224 5.355s-5.171-2.363-5.171-5.355c0-3.045 2.257-5.381 5.197-5.381 2.888 0 5.198 2.336 5.198 5.38zM43.207 8.082v9.477c-.97-1.68-2.94-2.73-5.118-2.73-3.623 0-6.3 2.913-6.3 6.615 0 3.648 2.756 6.588 6.3 6.588 2.205 0 4.226-1.076 5.171-2.835v2.573h1.26V8.082zm0 13.362c0 3.622-2.362 5.355-4.987 5.355-2.914 0-5.066-2.363-5.066-5.381 0-3.045 2.152-5.355 5.066-5.355 2.625 0 4.987 1.732 4.987 5.38zM60.401 21.733c.079-.29.105-.71.105-1.26 0-3.387-2.546-5.644-5.67-5.644-3.491-.079-6.484 3.018-6.405 6.615-.079 3.596 2.966 6.667 6.563 6.588 2.021 0 3.832-.892 5.092-2.362l-.84-.866c-1.129 1.338-2.546 1.995-4.226 1.995-2.861 0-5.066-2.1-5.224-5.067zM49.85 20.55c.183-1.312.735-2.388 1.653-3.228.92-.867 1.995-1.287 3.282-1.287 2.441 0 4.462 1.759 4.357 4.515zM82.477 19.764c0-2.966-1.68-4.935-4.515-4.935-2.02 0-3.543.997-4.383 2.467-.657-1.548-2.022-2.467-3.99-2.467-1.68 0-3.072.682-3.912 1.916v-1.654h-1.26V27.77h1.313v-7.901c0-2.205 1.496-3.806 3.675-3.806 2.1 0 3.386 1.522 3.386 3.806v7.901h1.313v-8.111c0-1.969 1.548-3.596 3.675-3.596 2.1 0 3.36 1.522 3.36 3.806v7.901h1.338v-8.006zM86.179 21.418c-.079 3.596 2.966 6.693 6.536 6.615 3.596.078 6.667-3.02 6.589-6.616 0-3.648-2.94-6.588-6.563-6.588-3.596-.079-6.641 2.94-6.562 6.588zm11.76.026c0 2.992-2.31 5.355-5.224 5.355s-5.171-2.363-5.171-5.355c0-3.045 2.257-5.381 5.197-5.381 2.888 0 5.198 2.336 5.198 5.38zM101.981 25.407c1.076 1.575 2.756 2.625 4.856 2.625 1.182 0 2.18-.315 2.993-.918.814-.604 1.234-1.47 1.234-2.599 0-1.759-1.155-2.704-3.282-3.649l-1.18-.525c-1.707-.735-2.39-1.207-2.39-2.283 0-1.287 1.103-1.995 2.573-1.995 1.234 0 2.336.55 3.307 1.627l.867-.84c-.945-1.234-2.337-2.021-4.095-2.021-1.129 0-2.074.289-2.862.892-.787.604-1.18 1.392-1.18 2.415 0 1.654 1.128 2.52 3.123 3.387l1.155.498c1.785.814 2.467 1.155 2.599 2.547 0 1.443-1.234 2.23-2.835 2.23-1.602 0-2.809-.787-3.964-2.257l-.919.867zM129.675 22.966c0 3.071 2.179 5.066 4.987 5.066 2.783 0 4.962-1.995 4.962-5.066v-7.875h-1.313v7.928c0 2.31-1.575 3.78-3.649 3.78-2.1 0-3.675-1.47-3.675-3.78V15.09h-1.312v7.875zM143.089 25.407c1.076 1.575 2.756 2.625 4.856 2.625 1.181 0 2.179-.315 2.992-.918.814-.604 1.234-1.47 1.234-2.599 0-1.759-1.155-2.704-3.281-3.649l-1.181-.525c-1.707-.735-2.389-1.207-2.389-2.283 0-1.287 1.102-1.995 2.572-1.995 1.234 0 2.337.55 3.308 1.627l.866-.84c-.945-1.234-2.336-2.021-4.095-2.021-1.129 0-2.074.289-2.861.892-.788.604-1.181 1.392-1.181 2.415 0 1.654 1.128 2.52 3.123 3.387l1.155.498c1.785.814 2.468 1.155 2.6 2.547 0 1.443-1.235 2.23-2.836 2.23-1.601 0-2.809-.787-3.964-2.257l-.918.867zM165.27 19.816c0-3.228-1.89-4.987-4.751-4.987-2.022 0-3.623.866-4.857 2.625l.92.735c1.075-1.392 2.257-2.127 3.858-2.127 2.126 0 3.491 1.287 3.491 3.702v1.444h-4.41c-2.651 0-4.41 1.312-4.41 3.386 0 1.076.42 1.942 1.26 2.546.84.604 1.864.893 3.098.893 1.995 0 3.622-.814 4.541-2.258v1.995h1.26zm-1.339 3.229c0 2.179-1.995 3.833-4.331 3.833-1.706 0-3.124-.814-3.124-2.363 0-1.391 1.103-2.179 3.176-2.179h4.28zM176.216 15.091c-.131 0-.472-.078-.814-.078-1.758 0-3.28.76-4.2 2.23v-2.152h-1.26V27.77h1.313v-7.455c0-2.546 2.126-4.069 4.305-4.069h.656v-1.155zM185.509 21.418c-.079 3.596 2.966 6.693 6.536 6.615 3.596.078 6.667-3.02 6.589-6.616 0-3.648-2.94-6.588-6.563-6.588-3.596-.079-6.641 2.94-6.562 6.588zm11.76.026c0 2.992-2.31 5.355-5.224 5.355s-5.171-2.363-5.171-5.355c0-3.045 2.257-5.381 5.197-5.381 2.888 0 5.198 2.336 5.198 5.38zM201.311 25.407c1.076 1.575 2.756 2.625 4.856 2.625 1.182 0 2.18-.315 2.993-.918.814-.604 1.234-1.47 1.234-2.599 0-1.759-1.155-2.704-3.282-3.649l-1.18-.525c-1.707-.735-2.39-1.207-2.39-2.283 0-1.287 1.103-1.995 2.573-1.995 1.234 0 2.336.55 3.307 1.627l.867-.84c-.945-1.234-2.337-2.021-4.095-2.021-1.129 0-2.074.289-2.862.892-.787.604-1.18 1.392-1.18 2.415 0 1.654 1.128 2.52 3.123 3.387l1.155.498c1.785.814 2.467 1.155 2.599 2.547 0 1.443-1.234 2.23-2.835 2.23-1.602 0-2.809-.787-3.964-2.257l-.919.867zM229.32 27.77h1.365V10.445h-1.365zM245.49 19.764c0-2.94-1.733-4.935-4.646-4.935-1.759 0-3.177.709-4.043 1.969V15.09h-1.26V27.77h1.313v-7.927c0-1.077.341-1.995 1.05-2.704.708-.709 1.627-1.076 2.73-1.076 2.178 0 3.543 1.548 3.543 3.78v7.927h1.313v-8.006zM256.541 26.615c-.656.131-1.26.21-1.759.21-1.706 0-2.756-.735-2.756-2.651v-7.875h4.095V15.09h-4.095v-3.596h-1.339v3.596h-2.205V16.3h2.205v7.927c0 2.625 1.497 3.806 3.885 3.806.657 0 1.313-.078 1.97-.262v-1.155zM270.454 21.733c.078-.29.105-.71.105-1.26 0-3.387-2.547-5.644-5.67-5.644-3.492-.079-6.484 3.018-6.405 6.615-.079 3.596 2.966 6.667 6.562 6.588 2.021 0 3.833-.892 5.093-2.362l-.84-.866c-1.129 1.338-2.546 1.995-4.226 1.995-2.862 0-5.067-2.1-5.224-5.067zM259.9 20.55c.184-1.312.735-2.388 1.654-3.228.919-.867 1.995-1.287 3.281-1.287 2.441 0 4.463 1.759 4.358 4.515zM280.744 15.091c-.132 0-.473-.078-.814-.078-1.759 0-3.281.76-4.2 2.23v-2.152h-1.26V27.77h1.312v-7.455c0-2.546 2.127-4.069 4.305-4.069h.657v-1.155zM292.399 19.816c0-3.228-1.89-4.987-4.752-4.987-2.02 0-3.622.866-4.856 2.625l.919.735c1.076-1.392 2.257-2.127 3.859-2.127 2.126 0 3.491 1.287 3.491 3.702v1.444h-4.41c-2.651 0-4.41 1.312-4.41 3.386 0 1.076.42 1.942 1.26 2.546.84.604 1.864.893 3.097.893 1.995 0 3.623-.814 4.542-2.258v1.995h1.26zm-1.339 3.229c0 2.179-1.995 3.833-4.331 3.833-1.707 0-3.124-.814-3.124-2.363 0-1.391 1.102-2.179 3.176-2.179h4.279zM296.1 21.418c-.079 3.596 2.966 6.693 6.536 6.615a6.316 6.316 0 005.145-2.6l-.945-.76c-1.102 1.417-2.494 2.126-4.2 2.126-2.914 0-5.171-2.363-5.171-5.382 0-2.966 2.257-5.355 5.197-5.355 1.707 0 3.098.71 4.174 2.127l.945-.762c-1.181-1.6-2.992-2.598-5.119-2.598-3.596-.079-6.64 2.992-6.562 6.588zM317.914 26.615c-.657.131-1.26.21-1.759.21-1.706 0-2.756-.735-2.756-2.651v-7.875h4.095V15.09h-4.095v-3.596h-1.339v3.596h-2.205V16.3h2.205v7.927c0 2.625 1.496 3.806 3.885 3.806.656 0 1.312-.078 1.969-.262v-1.155zM321.09 27.77h1.313V15.091h-1.313zm-.499-17.561c0 .63.499 1.155 1.155 1.155.63 0 1.155-.525 1.155-1.155s-.525-1.155-1.155-1.155c-.656 0-1.155.525-1.155 1.155zM336.42 15.091l-4.646 10.684-4.673-10.684h-1.417l5.827 12.941h.551l5.775-12.94zM351.592 21.733c.08-.29.105-.71.105-1.26 0-3.387-2.546-5.644-5.67-5.644-3.49-.079-6.483 3.018-6.405 6.615-.078 3.596 2.967 6.667 6.563 6.588 2.021 0 3.832-.892 5.092-2.362l-.84-.866c-1.128 1.338-2.546 1.995-4.226 1.995-2.861 0-5.066-2.1-5.224-5.067zM341.04 20.55c.184-1.312.735-2.388 1.654-3.228.918-.867 1.995-1.287 3.281-1.287 2.441 0 4.462 1.759 4.357 4.515zM374.167 27.77h1.444l-7.402-17.587h-.552L360.23 27.77h1.417l1.706-4.121h9.11zm-6.247-15.146l4.016 9.791h-8.059zM389.182 8.082v9.477c-.97-1.68-2.94-2.73-5.118-2.73-3.623 0-6.3 2.913-6.3 6.615 0 3.648 2.756 6.588 6.3 6.588 2.205 0 4.226-1.076 5.171-2.835v2.573h1.26V8.082zm0 13.362c0 3.622-2.362 5.355-4.987 5.355-2.914 0-5.066-2.363-5.066-5.381 0-3.045 2.152-5.355 5.066-5.355 2.625 0 4.987 1.732 4.987 5.38zM394.144 25.407c1.076 1.575 2.756 2.625 4.856 2.625 1.181 0 2.179-.315 2.992-.918.814-.604 1.234-1.47 1.234-2.599 0-1.759-1.155-2.704-3.281-3.649l-1.181-.525c-1.707-.735-2.389-1.207-2.389-2.283 0-1.287 1.102-1.995 2.572-1.995 1.234 0 2.337.55 3.308 1.627l.866-.84c-.945-1.234-2.336-2.021-4.095-2.021-1.129 0-2.074.289-2.861.892-.788.604-1.181 1.392-1.181 2.415 0 1.654 1.128 2.52 3.123 3.387l1.155.498c1.785.814 2.468 1.155 2.6 2.547 0 1.443-1.235 2.23-2.836 2.23-1.601 0-2.809-.787-3.964-2.257l-.918.867z" stroke-width=".02625"/></g><g fill="#fff" stroke="#000"><path d="M1.47 60.788c-.079 3.596 2.966 6.693 6.536 6.615a6.316 6.316 0 005.145-2.6l-.945-.76c-1.102 1.417-2.494 2.126-4.2 2.126-2.914 0-5.171-2.363-5.171-5.381 0-2.967 2.257-5.355 5.197-5.355 1.707 0 3.098.708 4.174 2.126l.945-.761c-1.181-1.602-2.992-2.6-5.119-2.6-3.596-.078-6.64 2.993-6.562 6.59zM15.697 60.788c-.078 3.596 2.967 6.693 6.537 6.615 3.596.078 6.667-3.02 6.588-6.616 0-3.648-2.94-6.588-6.562-6.588-3.596-.079-6.641 2.94-6.563 6.589zm11.76.026c0 2.992-2.31 5.355-5.223 5.355-2.914 0-5.172-2.363-5.172-5.355 0-3.045 2.258-5.381 5.198-5.381 2.887 0 5.197 2.336 5.197 5.38zM50.794 59.134c0-2.967-1.68-4.935-4.515-4.935-2.022 0-3.544.997-4.384 2.467-.656-1.548-2.021-2.467-3.99-2.467-1.68 0-3.071.682-3.911 1.916v-1.654h-1.26V67.14h1.312v-7.901c0-2.205 1.496-3.807 3.675-3.807 2.1 0 3.386 1.523 3.386 3.807v7.901h1.313v-8.111c0-1.969 1.549-3.597 3.675-3.597 2.1 0 3.36 1.523 3.36 3.807v7.901h1.339v-8.006zM54.495 60.788c-.079 3.596 2.966 6.693 6.536 6.615 3.596.078 6.668-3.02 6.589-6.616 0-3.648-2.94-6.588-6.563-6.588-3.596-.079-6.64 2.94-6.562 6.589zm11.76.026c0 2.992-2.31 5.355-5.224 5.355s-5.171-2.363-5.171-5.355c0-3.045 2.257-5.381 5.197-5.381 2.888 0 5.198 2.336 5.198 5.38zM86.047 62.336c0 3.072 2.18 5.067 4.988 5.067 2.782 0 4.961-1.996 4.961-5.067v-7.875h-1.312v7.928c0 2.31-1.575 3.78-3.649 3.78-2.1 0-3.675-1.47-3.675-3.78V54.46h-1.313v7.875zM118.755 59.134c0-2.967-1.68-4.935-4.515-4.935-2.021 0-3.544.997-4.384 2.467-.656-1.548-2.021-2.467-3.99-2.467-1.68 0-3.071.682-3.911 1.916v-1.654h-1.26V67.14h1.312v-7.901c0-2.205 1.497-3.807 3.675-3.807 2.1 0 3.387 1.523 3.387 3.807v7.901h1.312v-8.111c0-1.969 1.549-3.597 3.675-3.597 2.1 0 3.36 1.523 3.36 3.807v7.901h1.339v-8.006zM132.431 59.186c0-3.228-1.89-4.987-4.751-4.987-2.021 0-3.623.866-4.856 2.625l.918.735c1.077-1.391 2.258-2.126 3.86-2.126 2.125 0 3.49 1.286 3.49 3.7v1.445h-4.41c-2.65 0-4.41 1.312-4.41 3.386 0 1.076.42 1.942 1.26 2.546.84.604 1.864.892 3.098.892 1.995 0 3.622-.813 4.541-2.257v1.995h1.26zm-1.339 3.229c0 2.179-1.995 3.833-4.33 3.833-1.707 0-3.125-.814-3.125-2.363 0-1.391 1.103-2.179 3.177-2.179h4.278zM152.801 54.461l-4.646 10.684-4.673-10.684h-1.417l5.827 12.941h.552l5.775-12.94zM157.5 67.14h1.313V54.461H157.5zm-.499-17.561c0 .63.499 1.155 1.155 1.155.63 0 1.155-.525 1.155-1.155s-.525-1.155-1.155-1.155c-.656 0-1.155.525-1.155 1.155zM170.047 65.985c-.656.131-1.26.21-1.758.21-1.706 0-2.756-.735-2.756-2.651v-7.875h4.095V54.46h-4.095v-3.596h-1.34v3.596h-2.204v1.208h2.205v7.927c0 2.625 1.496 3.807 3.885 3.807.656 0 1.312-.08 1.968-.263v-1.155zM179.498 54.461c-.132 0-.473-.078-.814-.078-1.759 0-3.281.76-4.2 2.23v-2.152h-1.26V67.14h1.312v-7.455c0-2.546 2.127-4.069 4.305-4.069h.657v-1.155zM182.411 67.14h1.313V54.461h-1.313zm-.499-17.561c0 .63.5 1.155 1.155 1.155.63 0 1.155-.525 1.155-1.155s-.525-1.155-1.155-1.155c-.656 0-1.155.525-1.155 1.155zM198.555 59.134c0-2.94-1.733-4.935-4.646-4.935-1.759 0-3.177.708-4.043 1.968v-1.706h-1.26V67.14h1.313v-7.927c0-1.077.341-1.996 1.05-2.704.709-.709 1.627-1.077 2.73-1.077 2.178 0 3.543 1.55 3.543 3.78v7.928h1.313v-8.006zM214.252 61.102c.08-.288.105-.708.105-1.26 0-3.386-2.546-5.643-5.67-5.643-3.49-.079-6.483 3.019-6.405 6.615-.078 3.596 2.967 6.667 6.563 6.589 2.021 0 3.833-.893 5.093-2.363l-.84-.866c-1.13 1.339-2.547 1.995-4.227 1.995-2.861 0-5.066-2.1-5.224-5.066zm-10.552-1.18c.184-1.313.735-2.39 1.654-3.23.918-.866 1.995-1.286 3.281-1.286 2.441 0 4.462 1.759 4.357 4.515zM233.966 54.461l-4.646 10.684-4.673-10.684h-1.417l5.827 12.941h.552l5.775-12.94zM238.665 67.14h1.313V54.461h-1.313zm-.499-17.561c0 .63.499 1.155 1.155 1.155.63 0 1.155-.525 1.155-1.155s-.525-1.155-1.155-1.155c-.656 0-1.155.525-1.155 1.155zM251.134 54.461c-.131 0-.473-.078-.814-.078-1.759 0-3.281.76-4.2 2.23v-2.152h-1.26V67.14h1.313v-7.455c0-2.546 2.126-4.069 4.305-4.069h.656v-1.155zM260.4 65.985c-.656.131-1.26.21-1.759.21-1.706 0-2.756-.735-2.756-2.651v-7.875h4.095V54.46h-4.095v-3.596h-1.339v3.596h-2.205v1.208h2.205v7.927c0 2.625 1.496 3.807 3.885 3.807.656 0 1.313-.08 1.969-.263v-1.155zM263.392 62.336c0 3.072 2.18 5.067 4.988 5.067 2.782 0 4.961-1.996 4.961-5.067v-7.875h-1.312v7.928c0 2.31-1.575 3.78-3.649 3.78-2.1 0-3.675-1.47-3.675-3.78V54.46h-1.313v7.875zM287.044 59.186c0-3.228-1.89-4.987-4.751-4.987-2.022 0-3.623.866-4.857 2.625l.919.735c1.076-1.391 2.257-2.126 3.859-2.126 2.126 0 3.491 1.286 3.491 3.7v1.445h-4.41c-2.651 0-4.41 1.312-4.41 3.386 0 1.076.42 1.942 1.26 2.546.84.604 1.864.892 3.097.892 1.995 0 3.623-.813 4.542-2.257v1.995h1.26zm-1.339 3.229c0 2.179-1.995 3.833-4.331 3.833-1.707 0-3.124-.814-3.124-2.363 0-1.391 1.103-2.179 3.176-2.179h4.279zM291.716 67.14h1.313V47.452h-1.313z" stroke-width=".02625"/></g><g fill="#fff" stroke="#000"><path d="M325.343 60.788c0-3.65-2.757-6.59-6.3-6.59-2.205 0-4.227 1.103-5.172 2.81V54.46h-1.26v17.404h1.313v-7.166c.971 1.68 2.992 2.704 5.119 2.704 3.543 0 6.3-2.914 6.3-6.616zm-1.365.026c0 3.045-2.153 5.355-5.067 5.355-2.625 0-4.987-1.733-4.987-5.381 0-3.623 2.362-5.355 4.987-5.355 2.914 0 5.066 2.362 5.066 5.38zM338.257 59.186c0-3.228-1.89-4.987-4.75-4.987-2.022 0-3.623.866-4.857 2.625l.919.735c1.076-1.391 2.257-2.126 3.858-2.126 2.127 0 3.492 1.286 3.492 3.7v1.445h-4.41c-2.652 0-4.41 1.312-4.41 3.386 0 1.076.42 1.942 1.26 2.546.84.604 1.863.892 3.097.892 1.995 0 3.623-.813 4.541-2.257v1.995h1.26zm-1.338 3.229c0 2.179-1.995 3.833-4.331 3.833-1.707 0-3.124-.814-3.124-2.363 0-1.391 1.102-2.179 3.176-2.179h4.279zM349.204 54.461c-.132 0-.473-.078-.814-.078-1.759 0-3.281.76-4.2 2.23v-2.152h-1.26V67.14h1.312v-7.455c0-2.546 2.127-4.069 4.305-4.069h.657v-1.155zM360.859 59.186c0-3.228-1.89-4.987-4.751-4.987-2.022 0-3.623.866-4.857 2.625l.919.735c1.076-1.391 2.257-2.126 3.859-2.126 2.126 0 3.491 1.286 3.491 3.7v1.445h-4.41c-2.651 0-4.41 1.312-4.41 3.386 0 1.076.42 1.942 1.26 2.546.84.604 1.864.892 3.097.892 1.995 0 3.623-.813 4.542-2.257v1.995h1.26zm-1.339 3.229c0 2.179-1.995 3.833-4.331 3.833-1.707 0-3.124-.814-3.124-2.363 0-1.391 1.103-2.179 3.176-2.179h4.279zM390.941 59.134c0-2.967-1.68-4.935-4.515-4.935-2.021 0-3.544.997-4.384 2.467-.656-1.548-2.02-2.467-3.99-2.467-1.68 0-3.07.682-3.91 1.916v-1.654h-1.26V67.14h1.312v-7.901c0-2.205 1.496-3.807 3.675-3.807 2.1 0 3.386 1.523 3.386 3.807v7.901h1.313v-8.111c0-1.969 1.548-3.597 3.675-3.597 2.1 0 3.36 1.523 3.36 3.807v7.901h1.338v-8.006zM394.643 60.788c-.08 3.596 2.966 6.693 6.536 6.615 3.596.078 6.667-3.02 6.589-6.616 0-3.648-2.94-6.588-6.563-6.588-3.596-.079-6.641 2.94-6.562 6.589zm11.76.026c0 2.992-2.31 5.355-5.224 5.355s-5.171-2.363-5.171-5.355c0-3.045 2.257-5.381 5.197-5.381 2.888 0 5.198 2.336 5.198 5.38zM410.445 64.778c1.076 1.574 2.756 2.624 4.856 2.624 1.181 0 2.179-.314 2.993-.918.814-.604 1.234-1.47 1.234-2.599 0-1.759-1.156-2.704-3.282-3.649l-1.181-.525c-1.706-.735-2.389-1.207-2.389-2.283 0-1.287 1.103-1.995 2.573-1.995 1.233 0 2.336.55 3.307 1.627l.866-.84c-.945-1.234-2.336-2.021-4.095-2.021-1.128 0-2.073.288-2.86.892-.788.604-1.182 1.391-1.182 2.415 0 1.654 1.129 2.52 3.124 3.386l1.155.5c1.785.813 2.467 1.154 2.598 2.545 0 1.444-1.233 2.232-2.835 2.232-1.6 0-2.808-.788-3.963-2.258l-.919.866zM429.975 65.985c-.656.131-1.26.21-1.759.21-1.706 0-2.756-.735-2.756-2.651v-7.875h4.095V54.46h-4.095v-3.596h-1.339v3.596h-2.205v1.208h2.205v7.927c0 2.625 1.496 3.807 3.885 3.807.656 0 1.313-.08 1.969-.263v-1.155zM439.425 54.461c-.131 0-.472-.078-.814-.078-1.759 0-3.281.76-4.2 2.23v-2.152h-1.26V67.14h1.313v-7.455c0-2.546 2.126-4.069 4.305-4.069h.656v-1.155zM451.08 59.186c0-3.228-1.89-4.987-4.751-4.987-2.021 0-3.623.866-4.856 2.625l.918.735c1.076-1.391 2.258-2.126 3.859-2.126 2.126 0 3.491 1.286 3.491 3.7v1.445h-4.41c-2.651 0-4.41 1.312-4.41 3.386 0 1.076.42 1.942 1.26 2.546.84.604 1.864.892 3.098.892 1.995 0 3.622-.813 4.541-2.257v1.995h1.26zm-1.339 3.229c0 2.179-1.995 3.833-4.331 3.833-1.706 0-3.124-.814-3.124-2.363 0-1.391 1.103-2.179 3.177-2.179h4.278zM462.026 54.461c-.131 0-.472-.078-.814-.078-1.758 0-3.28.76-4.2 2.23v-2.152h-1.26V67.14h1.313v-7.455c0-2.546 2.126-4.069 4.305-4.069h.656v-1.155z" stroke-width=".02625"/></g><g fill="#fff" stroke="#000"><path d="M15.172 100.157c0-3.648-2.756-6.588-6.3-6.588-2.205 0-4.226 1.102-5.17 2.808v-2.546h-1.26v17.404h1.312v-7.166c.971 1.68 2.992 2.703 5.118 2.703 3.544 0 6.3-2.913 6.3-6.615zm-1.365.027c0 3.045-2.152 5.355-5.066 5.355-2.625 0-4.987-1.733-4.987-5.382 0-3.622 2.362-5.354 4.987-5.354 2.914 0 5.066 2.362 5.066 5.38zM25.357 93.831c-.13 0-.472-.079-.813-.079-1.759 0-3.282.762-4.2 2.232V93.83h-1.26v12.679h1.312v-7.455c0-2.546 2.126-4.069 4.305-4.069h.656v-1.155zM27.037 100.157c-.078 3.597 2.967 6.694 6.537 6.615 3.596.08 6.667-3.018 6.588-6.615 0-3.648-2.94-6.588-6.562-6.588-3.596-.079-6.641 2.94-6.563 6.588zm11.76.027c0 2.992-2.31 5.355-5.223 5.355-2.914 0-5.172-2.363-5.172-5.355 0-3.045 2.258-5.382 5.198-5.382 2.887 0 5.197 2.337 5.197 5.382zM54.521 86.822V96.3c-.971-1.68-2.94-2.73-5.119-2.73-3.622 0-6.3 2.913-6.3 6.615 0 3.648 2.757 6.588 6.3 6.588 2.205 0 4.227-1.076 5.172-2.835v2.573h1.26V86.822zm0 13.362c0 3.622-2.362 5.355-4.987 5.355-2.914 0-5.067-2.363-5.067-5.382 0-3.044 2.153-5.354 5.067-5.354 2.625 0 4.987 1.732 4.987 5.38zM60.532 101.706c0 3.071 2.18 5.066 4.988 5.066 2.782 0 4.961-1.995 4.961-5.066v-7.875H69.17v7.928c0 2.31-1.575 3.78-3.649 3.78-2.1 0-3.675-1.47-3.675-3.78V93.83h-1.313v7.875zM81.532 105.355c-.656.131-1.26.21-1.758.21-1.707 0-2.757-.735-2.757-2.651v-7.875h4.096V93.83h-4.096v-3.596H75.68v3.596h-2.205v1.208h2.205v7.927c0 2.625 1.496 3.806 3.885 3.806.656 0 1.312-.078 1.969-.262v-1.155zM83.475 100.157c-.079 3.597 2.966 6.694 6.536 6.615 3.596.08 6.668-3.018 6.589-6.615 0-3.648-2.94-6.588-6.563-6.588-3.596-.079-6.64 2.94-6.562 6.588zm11.76.027c0 2.992-2.31 5.355-5.224 5.355-2.913 0-5.171-2.363-5.171-5.355 0-3.045 2.257-5.382 5.197-5.382 2.888 0 5.198 2.337 5.198 5.382zM99.277 104.147c1.077 1.575 2.757 2.625 4.857 2.625 1.181 0 2.178-.315 2.992-.918.814-.604 1.234-1.47 1.234-2.599 0-1.759-1.155-2.704-3.281-3.649l-1.181-.525c-1.707-.735-2.39-1.207-2.39-2.284 0-1.286 1.103-1.995 2.573-1.995 1.234 0 2.336.552 3.308 1.628l.866-.84c-.945-1.234-2.336-2.021-4.095-2.021-1.129 0-2.074.288-2.861.892-.788.604-1.182 1.391-1.182 2.415 0 1.654 1.13 2.52 3.124 3.386l1.155.5c1.785.813 2.468 1.154 2.599 2.545 0 1.444-1.234 2.232-2.835 2.232s-2.809-.788-3.964-2.258l-.919.866zM112.639 111.235h1.128l.945-6.694h-1.627zM139.886 100.157c0-3.648-2.756-6.588-6.3-6.588-2.205 0-4.226 1.102-5.171 2.808v-2.546h-1.26v17.404h1.312v-7.166c.972 1.68 2.993 2.703 5.12 2.703 3.543 0 6.3-2.913 6.3-6.615zm-1.365.027c0 3.045-2.152 5.355-5.066 5.355-2.625 0-4.988-1.733-4.988-5.382 0-3.622 2.363-5.354 4.988-5.354 2.914 0 5.066 2.362 5.066 5.38zM150.071 93.831c-.131 0-.472-.079-.814-.079-1.758 0-3.28.762-4.2 2.232V93.83h-1.26v12.679h1.313v-7.455c0-2.546 2.126-4.069 4.305-4.069h.656v-1.155zM163.721 100.472c.079-.288.105-.708.105-1.26 0-3.386-2.546-5.643-5.67-5.643-3.491-.079-6.484 3.018-6.405 6.615-.079 3.596 2.966 6.667 6.563 6.588 2.021 0 3.832-.892 5.092-2.362l-.84-.866c-1.129 1.339-2.546 1.995-4.226 1.995-2.861 0-5.066-2.1-5.224-5.066zm-10.552-1.18c.183-1.313.735-2.39 1.653-3.23.92-.866 1.995-1.286 3.282-1.286 2.441 0 4.462 1.759 4.357 4.515zM166.766 100.157c-.079 3.597 2.966 6.694 6.536 6.615a6.316 6.316 0 005.145-2.598l-.945-.762c-1.102 1.418-2.493 2.127-4.2 2.127-2.913 0-5.17-2.363-5.17-5.382 0-2.966 2.257-5.355 5.197-5.355 1.706 0 3.097.71 4.174 2.127l.945-.762c-1.182-1.6-2.993-2.598-5.12-2.598-3.595-.079-6.64 2.992-6.562 6.588zm3.413 11.078a6.084 6.084 0 001.758.262c1.917 0 3.15-1.233 3.15-2.835 0-1.18-.735-2.126-1.863-2.65l-.499.393c.709.604 1.129 1.234 1.129 2.1 0 1.26-.867 1.89-2.1 1.89a6.76 6.76 0 01-1.575-.184zM180.994 100.157c-.079 3.597 2.966 6.694 6.536 6.615 3.596.08 6.667-3.018 6.589-6.615 0-3.648-2.94-6.588-6.563-6.588-3.596-.079-6.641 2.94-6.562 6.588zm11.76.027c0 2.992-2.31 5.355-5.224 5.355s-5.171-2.363-5.171-5.355c0-3.045 2.257-5.382 5.197-5.382 2.888 0 5.198 2.337 5.198 5.382zM196.796 104.147c1.076 1.575 2.756 2.625 4.856 2.625 1.182 0 2.18-.315 2.993-.918.814-.604 1.234-1.47 1.234-2.599 0-1.759-1.155-2.704-3.282-3.649l-1.18-.525c-1.707-.735-2.39-1.207-2.39-2.284 0-1.286 1.103-1.995 2.573-1.995 1.234 0 2.336.552 3.307 1.628l.867-.84c-.945-1.234-2.337-2.021-4.095-2.021-1.129 0-2.074.288-2.862.892-.787.604-1.18 1.391-1.18 2.415 0 1.654 1.128 2.52 3.123 3.386l1.155.5c1.785.813 2.467 1.154 2.599 2.545 0 1.444-1.234 2.232-2.835 2.232-1.602 0-2.809-.788-3.964-2.258l-.919.866zM228.322 100.472c.08-.288.105-.708.105-1.26 0-3.386-2.546-5.643-5.67-5.643-3.49-.079-6.483 3.018-6.405 6.615-.078 3.596 2.967 6.667 6.563 6.588 2.021 0 3.832-.892 5.092-2.362l-.84-.866c-1.128 1.339-2.546 1.995-4.226 1.995-2.861 0-5.066-2.1-5.224-5.066zm-10.552-1.18c.184-1.313.735-2.39 1.654-3.23.918-.866 1.995-1.286 3.281-1.286 2.441 0 4.462 1.759 4.357 4.515zM252.42 100.157c0-3.648-2.756-6.588-6.3-6.588-2.205 0-4.226 1.102-5.171 2.808v-2.546h-1.26v17.404H241v-7.166c.971 1.68 2.993 2.703 5.119 2.703 3.544 0 6.3-2.913 6.3-6.615zm-1.365.027c0 3.045-2.153 5.355-5.066 5.355-2.625 0-4.988-1.733-4.988-5.382 0-3.622 2.363-5.354 4.988-5.354 2.913 0 5.066 2.362 5.066 5.38zM262.605 93.831c-.131 0-.473-.079-.814-.079-1.759 0-3.281.762-4.2 2.232V93.83h-1.26v12.679h1.313v-7.455c0-2.546 2.126-4.069 4.305-4.069h.656v-1.155zM264.285 100.157c-.079 3.597 2.966 6.694 6.536 6.615 3.596.08 6.668-3.018 6.589-6.615 0-3.648-2.94-6.588-6.563-6.588-3.596-.079-6.64 2.94-6.562 6.588zm11.76.027c0 2.992-2.31 5.355-5.224 5.355s-5.171-2.363-5.171-5.355c0-3.045 2.257-5.382 5.197-5.382 2.888 0 5.198 2.337 5.198 5.382zM299.381 98.504c0-2.967-1.68-4.935-4.515-4.935-2.021 0-3.544.997-4.384 2.467-.656-1.549-2.02-2.467-3.99-2.467-1.68 0-3.07.682-3.91 1.916v-1.654h-1.26v12.679h1.312v-7.901c0-2.205 1.496-3.807 3.675-3.807 2.1 0 3.386 1.523 3.386 3.807v7.901h1.312v-8.111c0-1.969 1.55-3.597 3.675-3.597 2.1 0 3.36 1.523 3.36 3.807v7.901h1.34v-8.006zM303.082 100.157c-.078 3.597 2.967 6.694 6.537 6.615 3.596.08 6.667-3.018 6.588-6.615 0-3.648-2.94-6.588-6.562-6.588-3.596-.079-6.641 2.94-6.563 6.588zm11.76.027c0 2.992-2.31 5.355-5.223 5.355-2.914 0-5.172-2.363-5.172-5.355 0-3.045 2.258-5.382 5.198-5.382 2.887 0 5.197 2.337 5.197 5.382zM319.147 100.157c-.078 3.597 2.967 6.694 6.537 6.615a6.316 6.316 0 005.145-2.598l-.945-.762c-1.103 1.418-2.494 2.127-4.2 2.127-2.914 0-5.172-2.363-5.172-5.382 0-2.966 2.258-5.355 5.198-5.355 1.706 0 3.097.71 4.174 2.127l.945-.762c-1.182-1.6-2.993-2.598-5.119-2.598-3.596-.079-6.641 2.992-6.563 6.588zm3.413 11.078a6.084 6.084 0 001.759.262c1.916 0 3.15-1.233 3.15-2.835 0-1.18-.735-2.126-1.864-2.65l-.499.393c.709.604 1.129 1.234 1.129 2.1 0 1.26-.866 1.89-2.1 1.89a6.76 6.76 0 01-1.575-.184zM333.375 100.157c-.079 3.597 2.966 6.694 6.536 6.615 3.596.08 6.668-3.018 6.589-6.615 0-3.648-2.94-6.588-6.563-6.588-3.596-.079-6.64 2.94-6.562 6.588zm11.76.027c0 2.992-2.31 5.355-5.224 5.355s-5.171-2.363-5.171-5.355c0-3.045 2.257-5.382 5.197-5.382 2.888 0 5.198 2.337 5.198 5.382zm-5.093-10.29c.526.525 1.103.787 1.707.787 1.234 0 1.89-1.076 1.89-2.362 0-.263 0-.447-.026-.578h-1.155v.499c0 .709-.29 1.207-.84 1.207-.394 0-.683-.183-1.13-.63l-.655-.656c-.525-.525-1.077-.787-1.68-.787-1.234 0-1.89 1.023-1.89 2.362 0 .236 0 .446.026.578h1.155v-.525c0-.709.262-1.182.814-1.182.42 0 .682.184 1.128.63zM361.41 100.472c.079-.288.105-.708.105-1.26 0-3.386-2.546-5.643-5.67-5.643-3.491-.079-6.484 3.018-6.405 6.615-.079 3.596 2.966 6.667 6.563 6.588 2.02 0 3.832-.892 5.092-2.362l-.84-.866c-1.129 1.339-2.546 1.995-4.226 1.995-2.861 0-5.066-2.1-5.224-5.066zm-10.553-1.18c.184-1.313.735-2.39 1.654-3.23.919-.866 1.995-1.286 3.281-1.286 2.442 0 4.463 1.759 4.358 4.515zM364.192 104.147c1.077 1.575 2.757 2.625 4.857 2.625 1.181 0 2.178-.315 2.992-.918.814-.604 1.234-1.47 1.234-2.599 0-1.759-1.155-2.704-3.281-3.649l-1.182-.525c-1.706-.735-2.388-1.207-2.388-2.284 0-1.286 1.102-1.995 2.572-1.995 1.234 0 2.336.552 3.308 1.628l.866-.84c-.945-1.234-2.336-2.021-4.095-2.021-1.129 0-2.074.288-2.861.892-.788.604-1.182 1.391-1.182 2.415 0 1.654 1.13 2.52 3.124 3.386l1.155.5c1.785.813 2.468 1.154 2.599 2.545 0 1.444-1.234 2.232-2.835 2.232s-2.809-.788-3.964-2.258l-.919.866zM377.554 111.235h1.129l.945-6.694H378z" stroke-width=".02625"/></g><g fill="#fff" stroke="#000"><path d="M15.172 139.528c0-3.65-2.756-6.59-6.3-6.59-2.205 0-4.226 1.103-5.17 2.81V133.2h-1.26v17.404h1.312v-7.166c.971 1.68 2.992 2.704 5.118 2.704 3.544 0 6.3-2.914 6.3-6.615zm-1.365.026c0 3.045-2.152 5.355-5.066 5.355-2.625 0-4.987-1.733-4.987-5.381 0-3.623 2.362-5.355 4.987-5.355 2.914 0 5.066 2.362 5.066 5.38zM18.112 139.528c-.078 3.596 2.967 6.693 6.537 6.615 3.596.078 6.667-3.02 6.588-6.615 0-3.65-2.94-6.59-6.562-6.59-3.596-.078-6.641 2.94-6.563 6.59zm11.76.026c0 2.992-2.31 5.355-5.223 5.355-2.914 0-5.172-2.363-5.172-5.355 0-3.045 2.258-5.381 5.198-5.381 2.887 0 5.197 2.336 5.197 5.38zM45.596 126.192v9.477c-.971-1.68-2.94-2.73-5.118-2.73-3.623 0-6.3 2.914-6.3 6.615 0 3.649 2.756 6.589 6.3 6.589 2.204 0 4.226-1.077 5.17-2.835v2.572h1.26v-19.688zm0 13.362c0 3.622-2.362 5.355-4.987 5.355-2.914 0-5.067-2.363-5.067-5.381 0-3.045 2.153-5.355 5.067-5.355 2.625 0 4.987 1.732 4.987 5.38zM62.79 139.843c.079-.29.105-.71.105-1.26 0-3.387-2.546-5.644-5.67-5.644-3.491-.079-6.484 3.019-6.405 6.615-.079 3.596 2.966 6.667 6.562 6.589 2.022 0 3.833-.893 5.093-2.363l-.84-.866c-1.129 1.339-2.546 1.995-4.226 1.995-2.862 0-5.067-2.1-5.224-5.066zm-10.553-1.182c.184-1.312.735-2.389 1.654-3.229.919-.866 1.995-1.286 3.281-1.286 2.442 0 4.463 1.759 4.358 4.515zM76.755 137.874c0-2.94-1.732-4.935-4.646-4.935-1.759 0-3.176.709-4.043 1.969V133.2h-1.26v12.679h1.313v-7.927c0-1.077.341-1.996 1.05-2.704.708-.709 1.627-1.077 2.73-1.077 2.178 0 3.543 1.55 3.543 3.78v7.928h1.313v-8.006zM91.901 126.192v9.477c-.971-1.68-2.94-2.73-5.119-2.73-3.622 0-6.3 2.914-6.3 6.615 0 3.649 2.757 6.589 6.3 6.589 2.205 0 4.227-1.077 5.172-2.835v2.572h1.26v-19.688zm0 13.362c0 3.622-2.362 5.355-4.987 5.355-2.914 0-5.067-2.363-5.067-5.381 0-3.045 2.153-5.355 5.067-5.355 2.625 0 4.987 1.732 4.987 5.38zM97.125 139.528c-.079 3.596 2.966 6.693 6.536 6.615 3.596.078 6.668-3.02 6.589-6.615 0-3.65-2.94-6.59-6.563-6.59-3.596-.078-6.64 2.94-6.562 6.59zm11.76.026c0 2.992-2.31 5.355-5.224 5.355s-5.171-2.363-5.171-5.355c0-3.045 2.257-5.381 5.197-5.381 2.888 0 5.198 2.336 5.198 5.38zM121.511 145.88h1.313v-19.688h-1.313zM138.705 139.843c.079-.29.105-.71.105-1.26 0-3.387-2.546-5.644-5.67-5.644-3.491-.079-6.484 3.019-6.405 6.615-.079 3.596 2.966 6.667 6.562 6.589 2.022 0 3.833-.893 5.093-2.363l-.84-.866c-1.129 1.339-2.546 1.995-4.226 1.995-2.862 0-5.067-2.1-5.224-5.066zm-10.553-1.182c.184-1.312.735-2.389 1.654-3.229.919-.866 1.995-1.286 3.281-1.286 2.442 0 4.463 1.759 4.358 4.515zM151.331 133.201l-4.646 10.684-4.673-10.684h-1.417l5.827 12.941h.552l5.775-12.94zM164.509 137.926c0-3.229-1.89-4.987-4.752-4.987-2.02 0-3.622.866-4.856 2.625l.919.735c1.076-1.392 2.257-2.127 3.859-2.127 2.126 0 3.491 1.287 3.491 3.702v1.443h-4.41c-2.651 0-4.41 1.313-4.41 3.387 0 1.076.42 1.942 1.26 2.546.84.604 1.864.892 3.097.892 1.995 0 3.623-.813 4.542-2.257v1.995h1.26zm-1.339 3.229c0 2.179-1.995 3.832-4.331 3.832-1.707 0-3.124-.813-3.124-2.362 0-1.391 1.102-2.179 3.176-2.179h4.279zM175.455 133.201c-.131 0-.473-.079-.814-.079-1.759 0-3.281.762-4.2 2.232V133.2h-1.26v12.679h1.313v-7.455c0-2.546 2.126-4.069 4.305-4.069h.656v-1.155z" stroke-width=".02625"/></g><g fill="#fff" stroke="#000"><path d="M192.097 139.528c-.078 3.596 2.967 6.693 6.537 6.615 3.596.078 6.667-3.02 6.588-6.615 0-3.65-2.94-6.59-6.562-6.59-3.596-.078-6.641 2.94-6.563 6.59zm11.76.026c0 2.992-2.31 5.355-5.223 5.355-2.914 0-5.172-2.363-5.172-5.355 0-3.045 2.258-5.381 5.198-5.381 2.887 0 5.197 2.336 5.197 5.38zM216.3 141.076c0 3.071 2.179 5.066 4.987 5.066 2.783 0 4.962-1.995 4.962-5.066v-7.875h-1.313v7.928c0 2.31-1.575 3.78-3.649 3.78-2.1 0-3.675-1.47-3.675-3.78V133.2H216.3v7.875zM229.714 143.517c1.076 1.575 2.756 2.625 4.856 2.625 1.181 0 2.179-.315 2.992-.918.814-.604 1.234-1.47 1.234-2.599 0-1.759-1.155-2.704-3.281-3.649l-1.181-.525c-1.707-.735-2.389-1.207-2.389-2.284 0-1.286 1.102-1.995 2.572-1.995 1.234 0 2.337.552 3.308 1.628l.866-.84c-.945-1.234-2.336-2.021-4.095-2.021-1.129 0-2.074.288-2.861.892-.788.604-1.181 1.391-1.181 2.415 0 1.654 1.128 2.52 3.123 3.386l1.155.5c1.785.813 2.468 1.154 2.6 2.545 0 1.444-1.235 2.232-2.836 2.232-1.601 0-2.809-.788-3.964-2.258l-.918.866zM242.707 141.076c0 3.071 2.18 5.066 4.988 5.066 2.782 0 4.961-1.995 4.961-5.066v-7.875h-1.312v7.928c0 2.31-1.575 3.78-3.649 3.78-2.1 0-3.675-1.47-3.675-3.78V133.2h-1.313v7.875zM266.359 137.926c0-3.229-1.89-4.987-4.751-4.987-2.022 0-3.623.866-4.857 2.625l.919.735c1.076-1.392 2.257-2.127 3.859-2.127 2.126 0 3.491 1.287 3.491 3.702v1.443h-4.41c-2.651 0-4.41 1.313-4.41 3.387 0 1.076.42 1.942 1.26 2.546.84.604 1.864.892 3.097.892 1.995 0 3.623-.813 4.542-2.257v1.995h1.26zm-1.339 3.229c0 2.179-1.995 3.832-4.331 3.832-1.707 0-3.124-.813-3.124-2.362 0-1.391 1.103-2.179 3.176-2.179h4.279zm-3.938-10.08h1.05l2.967-5.434v-.236h-1.628zM277.305 133.201c-.131 0-.473-.079-.814-.079-1.759 0-3.281.762-4.2 2.232V133.2h-1.26v12.679h1.313v-7.455c0-2.546 2.126-4.069 4.305-4.069h.656v-1.155zM280.219 145.88h1.312v-12.679h-1.312zm-.499-17.561c0 .63.499 1.155 1.155 1.155.63 0 1.155-.525 1.155-1.155s-.525-1.155-1.155-1.155c-.656 0-1.155.525-1.155 1.155zM285.442 139.528c-.078 3.596 2.967 6.693 6.537 6.615 3.596.078 6.667-3.02 6.589-6.615 0-3.65-2.94-6.59-6.563-6.59-3.596-.078-6.641 2.94-6.563 6.59zm11.76.026c0 2.992-2.31 5.355-5.223 5.355-2.914 0-5.171-2.363-5.171-5.355 0-3.045 2.257-5.381 5.197-5.381 2.887 0 5.197 2.336 5.197 5.38zM318.832 137.926c0-3.229-1.89-4.987-4.75-4.987-2.022 0-3.623.866-4.857 2.625l.919.735c1.076-1.392 2.257-2.127 3.858-2.127 2.127 0 3.492 1.287 3.492 3.702v1.443h-4.41c-2.652 0-4.41 1.313-4.41 3.387 0 1.076.42 1.942 1.26 2.546.84.604 1.863.892 3.097.892 1.995 0 3.623-.813 4.541-2.257v1.995h1.26zm-1.338 3.229c0 2.179-1.995 3.832-4.332 3.832-1.706 0-3.123-.813-3.123-2.362 0-1.391 1.102-2.179 3.176-2.179h4.279zM329.857 144.725c-.656.131-1.26.21-1.758.21-1.707 0-2.757-.735-2.757-2.651v-7.875h4.095V133.2h-4.095v-3.596h-1.338v3.596h-2.205v1.208h2.205v7.927c0 2.625 1.496 3.806 3.885 3.806.656 0 1.312-.078 1.968-.262v-1.155zM343.77 139.843c.079-.29.105-.71.105-1.26 0-3.387-2.546-5.644-5.67-5.644-3.491-.079-6.484 3.019-6.405 6.615-.079 3.596 2.966 6.667 6.563 6.589 2.02 0 3.832-.893 5.092-2.363l-.84-.866c-1.129 1.339-2.546 1.995-4.226 1.995-2.861 0-5.066-2.1-5.224-5.066zm-10.553-1.182c.184-1.312.735-2.389 1.654-3.229.919-.866 1.995-1.286 3.281-1.286 2.442 0 4.463 1.759 4.358 4.515zm4.305-7.586h1.05l2.967-5.434v-.236h-1.628zM354.165 139.528c-.079 3.596 2.966 6.693 6.536 6.615 3.596.078 6.668-3.02 6.589-6.615 0-3.65-2.94-6.59-6.563-6.59-3.596-.078-6.64 2.94-6.562 6.59zm11.76.026c0 2.992-2.31 5.355-5.224 5.355s-5.171-2.363-5.171-5.355c0-3.045 2.258-5.381 5.198-5.381 2.887 0 5.197 2.336 5.197 5.38zM377.317 143.517c1.077 1.575 2.757 2.625 4.857 2.625 1.181 0 2.179-.315 2.992-.918.814-.604 1.234-1.47 1.234-2.599 0-1.759-1.155-2.704-3.281-3.649l-1.182-.525c-1.706-.735-2.388-1.207-2.388-2.284 0-1.286 1.102-1.995 2.572-1.995 1.234 0 2.336.552 3.308 1.628l.866-.84c-.945-1.234-2.336-2.021-4.095-2.021-1.129 0-2.074.288-2.861.892-.788.604-1.182 1.391-1.182 2.415 0 1.654 1.13 2.52 3.124 3.386l1.155.5c1.785.813 2.468 1.154 2.599 2.545 0 1.444-1.234 2.232-2.835 2.232s-2.809-.788-3.964-2.258l-.919.866zM390.495 145.88h1.313v-12.679h-1.313zm-.499-17.561c0 .63.499 1.155 1.155 1.155.63 0 1.155-.525 1.155-1.155s-.525-1.155-1.155-1.155c-.656 0-1.155.525-1.155 1.155zM403.043 144.725c-.657.131-1.26.21-1.76.21-1.706 0-2.756-.735-2.756-2.651v-7.875h4.095V133.2h-4.095v-3.596h-1.338v3.596h-2.205v1.208h2.205v7.927c0 2.625 1.496 3.806 3.885 3.806.656 0 1.312-.078 1.968-.262v-1.155zM416.955 139.843c.079-.29.105-.71.105-1.26 0-3.387-2.546-5.644-5.67-5.644-3.491-.079-6.484 3.019-6.405 6.615-.079 3.596 2.966 6.667 6.563 6.589 2.02 0 3.832-.893 5.092-2.363l-.84-.866c-1.129 1.339-2.546 1.995-4.226 1.995-2.861 0-5.066-2.1-5.224-5.066zm-10.552-1.182c.183-1.312.735-2.389 1.653-3.229.919-.866 1.995-1.286 3.282-1.286 2.44 0 4.462 1.759 4.357 4.515zM434.7 139.528c-.079 3.596 2.966 6.693 6.536 6.615 3.597.078 6.668-3.02 6.589-6.615 0-3.65-2.94-6.59-6.562-6.59-3.597-.078-6.642 2.94-6.563 6.59zm11.76.026c0 2.992-2.31 5.355-5.224 5.355-2.913 0-5.171-2.363-5.171-5.355 0-3.045 2.258-5.381 5.198-5.381 2.887 0 5.197 2.336 5.197 5.38zM451.553 141.076c0 3.071 2.178 5.066 4.987 5.066 2.783 0 4.961-1.995 4.961-5.066v-7.875h-1.312v7.928c0 2.31-1.575 3.78-3.649 3.78-2.1 0-3.675-1.47-3.675-3.78V133.2h-1.312v7.875z" stroke-width=".02625"/></g><g fill="#fff" stroke="#000"><path d="M12.889 165.563v9.476c-.971-1.68-2.94-2.73-5.119-2.73-3.622 0-6.3 2.914-6.3 6.615 0 3.649 2.756 6.589 6.3 6.589 2.205 0 4.226-1.077 5.171-2.835v2.572h1.26v-19.688zm0 13.36c0 3.623-2.363 5.356-4.988 5.356-2.913 0-5.066-2.363-5.066-5.381 0-3.045 2.152-5.355 5.066-5.355 2.625 0 4.988 1.732 4.988 5.38zM19.084 185.25h1.312v-12.679h-1.312zm-.499-17.561c0 .63.499 1.155 1.155 1.155.63 0 1.155-.525 1.155-1.155s-.525-1.155-1.155-1.155c-.656 0-1.155.525-1.155 1.155zM31.552 172.571c-.13 0-.472-.079-.813-.079-1.759 0-3.282.762-4.2 2.232v-2.153h-1.26v12.679h1.312v-7.455c0-2.546 2.126-4.069 4.305-4.069h.656v-1.155zM45.202 179.213c.08-.29.105-.71.105-1.26 0-3.387-2.546-5.644-5.67-5.644-3.49-.079-6.483 3.019-6.405 6.615-.078 3.596 2.967 6.667 6.563 6.589 2.021 0 3.832-.893 5.092-2.363l-.84-.866c-1.128 1.339-2.546 1.995-4.226 1.995-2.861 0-5.066-2.1-5.224-5.066zM34.65 178.03c.184-1.312.735-2.389 1.654-3.229.918-.866 1.995-1.286 3.281-1.286 2.441 0 4.462 1.759 4.357 4.515zM48.247 178.898c-.078 3.596 2.967 6.693 6.537 6.615a6.316 6.316 0 005.145-2.6l-.945-.76c-1.103 1.417-2.494 2.126-4.2 2.126-2.914 0-5.172-2.363-5.172-5.381 0-2.967 2.258-5.355 5.198-5.355 1.706 0 3.097.708 4.174 2.126l.945-.761c-1.182-1.602-2.993-2.6-5.119-2.6-3.596-.078-6.641 2.993-6.563 6.59zM63.709 185.25h1.312v-12.679H63.71zm-.499-17.561c0 .63.499 1.155 1.155 1.155.63 0 1.155-.525 1.155-1.155s-.525-1.155-1.155-1.155c-.656 0-1.155.525-1.155 1.155zM68.932 178.898c-.078 3.596 2.967 6.693 6.537 6.615 3.596.078 6.667-3.02 6.588-6.615 0-3.65-2.94-6.59-6.562-6.59-3.596-.078-6.641 2.94-6.563 6.59zm11.76.026c0 2.992-2.31 5.355-5.223 5.355-2.914 0-5.171-2.363-5.171-5.355 0-3.045 2.257-5.381 5.197-5.381 2.887 0 5.197 2.336 5.197 5.38zM95.917 177.244c0-2.94-1.732-4.935-4.646-4.935-1.759 0-3.176.709-4.042 1.969v-1.707h-1.26v12.679h1.312v-7.927c0-1.077.341-1.996 1.05-2.704.709-.709 1.628-1.077 2.73-1.077 2.179 0 3.544 1.55 3.544 3.78v7.928h1.312v-8.006zM109.62 177.296c0-3.229-1.89-4.987-4.751-4.987-2.022 0-3.623.866-4.857 2.625l.92.735c1.075-1.392 2.257-2.127 3.858-2.127 2.126 0 3.491 1.287 3.491 3.702v1.443h-4.41c-2.651 0-4.41 1.313-4.41 3.387 0 1.076.42 1.942 1.26 2.546.84.604 1.864.892 3.098.892 1.995 0 3.622-.813 4.541-2.257v1.995h1.26zm-1.339 3.229c0 2.179-1.995 3.832-4.331 3.832-1.706 0-3.124-.813-3.124-2.362 0-1.391 1.103-2.179 3.176-2.179h4.28zm-3.937-10.08h1.05l2.966-5.434v-.236h-1.628zM113.347 177.664h5.985v-1.155h-5.985zM123.296 185.25h1.313v-19.688h-1.313zM128.52 178.898c-.079 3.596 2.966 6.693 6.536 6.615 3.596.078 6.668-3.02 6.589-6.615 0-3.65-2.94-6.59-6.563-6.59-3.596-.078-6.64 2.94-6.562 6.59zm11.76.026c0 2.992-2.31 5.355-5.224 5.355s-5.171-2.363-5.171-5.355c0-3.045 2.257-5.381 5.197-5.381 2.888 0 5.198 2.336 5.198 5.38zM161.91 177.296c0-3.229-1.89-4.987-4.751-4.987-2.022 0-3.623.866-4.857 2.625l.92.735c1.075-1.392 2.257-2.127 3.858-2.127 2.126 0 3.491 1.287 3.491 3.702v1.443h-4.41c-2.651 0-4.41 1.313-4.41 3.387 0 1.076.42 1.942 1.26 2.546.84.604 1.864.892 3.098.892 1.995 0 3.622-.813 4.541-2.257v1.995h1.26zm-1.339 3.229c0 2.179-1.995 3.832-4.331 3.832-1.706 0-3.124-.813-3.124-2.362 0-1.391 1.103-2.179 3.176-2.179h4.28zM172.935 184.095c-.656.131-1.26.21-1.759.21-1.706 0-2.756-.735-2.756-2.651v-7.875h4.095v-1.208h-4.095v-3.596h-1.339v3.596h-2.205v1.208h2.205v7.927c0 2.625 1.496 3.807 3.885 3.807.656 0 1.313-.08 1.969-.263v-1.155zM186.847 179.213c.08-.29.105-.71.105-1.26 0-3.387-2.546-5.644-5.67-5.644-3.49-.079-6.483 3.019-6.405 6.615-.078 3.596 2.967 6.667 6.563 6.589 2.021 0 3.832-.893 5.092-2.363l-.84-.866c-1.128 1.339-2.546 1.995-4.226 1.995-2.861 0-5.066-2.1-5.224-5.066zm-10.552-1.182c.184-1.312.735-2.389 1.654-3.229.918-.866 1.995-1.286 3.281-1.286 2.441 0 4.462 1.759 4.357 4.515zm4.305-7.586h1.05l2.966-5.434v-.236h-1.627zM207.217 177.296c0-3.229-1.89-4.987-4.75-4.987-2.022 0-3.623.866-4.857 2.625l.919.735c1.076-1.392 2.257-2.127 3.858-2.127 2.127 0 3.492 1.287 3.492 3.702v1.443h-4.41c-2.652 0-4.41 1.313-4.41 3.387 0 1.076.42 1.942 1.26 2.546.84.604 1.863.892 3.097.892 1.995 0 3.623-.813 4.541-2.257v1.995h1.26zm-1.338 3.229c0 2.179-1.995 3.832-4.332 3.832-1.706 0-3.123-.813-3.123-2.362 0-1.391 1.102-2.179 3.176-2.179h4.279zM219.24 185.25h1.312v-19.688h-1.312zM224.464 178.898c-.079 3.596 2.966 6.693 6.536 6.615 3.596.078 6.667-3.02 6.589-6.615 0-3.65-2.94-6.59-6.563-6.59-3.596-.078-6.641 2.94-6.562 6.59zm11.76.026c0 2.992-2.31 5.355-5.224 5.355s-5.171-2.363-5.171-5.355c0-3.045 2.257-5.381 5.197-5.381 2.888 0 5.198 2.336 5.198 5.38zM237.536 190.08a6.24 6.24 0 001.444.158c2.336 0 3.832-1.182 3.832-3.807v-13.86H241.5v13.808c0 1.969-.998 2.651-2.756 2.651-.394 0-.814-.026-1.208-.105zm3.465-22.391c0 .63.499 1.155 1.155 1.155.63 0 1.155-.525 1.155-1.155s-.525-1.155-1.155-1.155c-.656 0-1.155.525-1.155 1.155zM256.699 177.296c0-3.229-1.89-4.987-4.752-4.987-2.02 0-3.622.866-4.856 2.625l.919.735c1.076-1.392 2.257-2.127 3.859-2.127 2.126 0 3.491 1.287 3.491 3.702v1.443h-4.41c-2.651 0-4.41 1.313-4.41 3.387 0 1.076.42 1.942 1.26 2.546.84.604 1.864.892 3.097.892 1.995 0 3.623-.813 4.542-2.257v1.995h1.26zm-1.339 3.229c0 2.179-1.995 3.832-4.331 3.832-1.707 0-3.124-.813-3.124-2.362 0-1.391 1.102-2.179 3.176-2.179h4.279zM286.781 177.244c0-2.966-1.68-4.935-4.515-4.935-2.021 0-3.544.997-4.384 2.467-.656-1.549-2.02-2.467-3.99-2.467-1.68 0-3.07.682-3.91 1.916v-1.654h-1.26v12.679h1.312v-7.901c0-2.205 1.496-3.806 3.675-3.806 2.1 0 3.386 1.522 3.386 3.806v7.901h1.313v-8.111c0-1.969 1.548-3.597 3.675-3.597 2.1 0 3.36 1.523 3.36 3.807v7.901h1.338v-8.006zM300.457 177.296c0-3.229-1.89-4.987-4.75-4.987-2.022 0-3.623.866-4.857 2.625l.919.735c1.076-1.392 2.257-2.127 3.858-2.127 2.127 0 3.492 1.287 3.492 3.702v1.443h-4.41c-2.652 0-4.41 1.313-4.41 3.387 0 1.076.42 1.942 1.26 2.546.84.604 1.863.892 3.097.892 1.995 0 3.623-.813 4.541-2.257v1.995h1.26zm-1.338 3.229c0 2.179-1.995 3.832-4.332 3.832-1.706 0-3.123-.813-3.123-2.362 0-1.391 1.102-2.179 3.176-2.179h4.279zM305.13 185.25h1.313v-12.679h-1.313zm-.499-17.561c0 .63.499 1.155 1.155 1.155.63 0 1.155-.525 1.155-1.155s-.525-1.155-1.155-1.155c-.656 0-1.155.525-1.155 1.155zM310.091 182.887c1.076 1.575 2.756 2.625 4.856 2.625 1.182 0 2.18-.315 2.993-.918.814-.604 1.234-1.47 1.234-2.599 0-1.759-1.155-2.704-3.282-3.649l-1.18-.525c-1.707-.735-2.39-1.207-2.39-2.284 0-1.286 1.103-1.995 2.573-1.995 1.234 0 2.336.552 3.307 1.628l.867-.84c-.945-1.234-2.337-2.021-4.095-2.021-1.129 0-2.074.288-2.862.892-.787.604-1.18 1.391-1.18 2.415 0 1.654 1.128 2.52 3.123 3.386l1.155.5c1.785.813 2.467 1.154 2.599 2.545 0 1.444-1.234 2.232-2.835 2.232-1.602 0-2.809-.788-3.964-2.258l-.919.866zM343.35 178.898c0-3.65-2.756-6.59-6.3-6.59-2.205 0-4.226 1.103-5.171 2.81v-2.547h-1.26v17.404h1.312v-7.166c.972 1.68 2.993 2.704 5.119 2.704 3.544 0 6.3-2.914 6.3-6.615zm-1.365.026c0 3.045-2.152 5.355-5.066 5.355-2.625 0-4.988-1.733-4.988-5.381 0-3.623 2.363-5.355 4.988-5.355 2.914 0 5.066 2.362 5.066 5.38zM353.535 172.571c-.131 0-.473-.079-.814-.079-1.759 0-3.281.762-4.2 2.232v-2.153h-1.26v12.679h1.313v-7.455c0-2.546 2.126-4.069 4.305-4.069h.656v-1.155zM355.215 178.898c-.079 3.596 2.966 6.693 6.536 6.615 3.597.078 6.668-3.02 6.589-6.615 0-3.65-2.94-6.59-6.562-6.59-3.597-.078-6.642 2.94-6.563 6.59zm11.76.026c0 2.992-2.31 5.355-5.224 5.355-2.913 0-5.171-2.363-5.171-5.355 0-3.045 2.258-5.381 5.198-5.381 2.887 0 5.197 2.336 5.197 5.38zm-5.696-8.479h1.05l2.966-5.434v-.236h-1.627zM381.203 185.25l-4.857-6.615 4.463-6.064h-1.575l-3.675 5.093-3.623-5.093h-1.575l4.41 6.011-4.803 6.668h1.575l4.042-5.67 4.043 5.67zM384.326 185.25h1.313v-12.679h-1.313zm-.498-17.561c0 .63.498 1.155 1.155 1.155.63 0 1.155-.525 1.155-1.155s-.525-1.155-1.155-1.155c-.657 0-1.155.525-1.155 1.155zM408.581 177.244c0-2.966-1.68-4.935-4.515-4.935-2.021 0-3.543.997-4.383 2.467-.657-1.549-2.022-2.467-3.99-2.467-1.68 0-3.072.682-3.912 1.916v-1.654h-1.26v12.679h1.313v-7.901c0-2.205 1.496-3.806 3.675-3.806 2.1 0 3.386 1.522 3.386 3.806v7.901h1.313v-8.111c0-1.969 1.548-3.597 3.675-3.597 2.1 0 3.36 1.523 3.36 3.807v7.901h1.338v-8.006zM422.258 177.296c0-3.229-1.89-4.987-4.752-4.987-2.021 0-3.622.866-4.856 2.625l.919.735c1.076-1.392 2.257-2.127 3.859-2.127 2.126 0 3.49 1.287 3.49 3.702v1.443h-4.41c-2.65 0-4.41 1.313-4.41 3.387 0 1.076.42 1.942 1.26 2.546.84.604 1.864.892 3.098.892 1.995 0 3.623-.813 4.541-2.257v1.995h1.26zm-1.34 3.229c0 2.179-1.994 3.832-4.33 3.832-1.707 0-3.124-.813-3.124-2.362 0-1.391 1.102-2.179 3.176-2.179h4.279zM426.878 184.252c0 .735.603 1.26 1.26 1.26.735 0 1.312-.525 1.312-1.26 0-.813-.577-1.312-1.312-1.312-.71 0-1.26.551-1.26 1.313z" stroke-width=".02625"/></g></svg>